<?xml version="1.0"?>
<svg width="1346" height="1128" xmlns="http://www.w3.org/2000/svg" version="1.1">
 <polygon points="24,1115 1322,1115 1334,1103 1334,23 1322,11 24,11 12,23 12,1103 24,1115" stroke="#FFFFE0" fill="#FFFFE0"/>
 <polyline points="1322,1115 1324,1115 1326,1114 1327,1114 1329,1113 1330,1111 1332,1110 1333,1108 1333,1107 1334,1105 1334,1103" stroke="#FFFFE0" fill="none"/>
 <polyline points="1334,23 1334,21 1333,19 1333,18 1332,16 1330,15 1329,13 1327,12 1326,12 1324,11 1322,11" stroke="#FFFFE0" fill="none"/>
 <polyline points="24,11 22,11 20,12 19,12 17,13 16,15 14,16 13,18 13,19 12,21 12,23" stroke="#FFFFE0" fill="none"/>
 <polyline points="12,1103 12,1105 13,1107 13,1108 14,1110 16,1111 17,1113 19,1114 20,1114 22,1115 24,1115" stroke="#FFFFE0" fill="none"/>
 <polyline points="24,1115 1322,1115" stroke="#000000" fill="none"/>
 <polyline points="1322,1115 1324,1115 1326,1114 1327,1114 1329,1113 1330,1111 1332,1110 1333,1108 1333,1107 1334,1105 1334,1103" stroke="#000000" fill="none"/>
 <polyline points="1334,1103 1334,23" stroke="#000000" fill="none"/>
 <polyline points="1334,23 1334,21 1333,19 1333,18 1332,16 1330,15 1329,13 1327,12 1326,12 1324,11 1322,11" stroke="#000000" fill="none"/>
 <polyline points="1322,11 24,11" stroke="#000000" fill="none"/>
 <polyline points="24,11 22,11 20,12 19,12 17,13 16,15 14,16 13,18 13,19 12,21 12,23" stroke="#000000" fill="none"/>
 <polyline points="12,23 12,1103" stroke="#000000" fill="none"/>
 <polyline points="12,1103 12,1105 13,1107 13,1108 14,1110 16,1111 17,1113 19,1114 20,1114 22,1115 24,1115" stroke="#000000" fill="none"/>
 <text x="652" y="27" fill="#000000" font-family="Arial" font-size="12">Item.h</text>
 <polygon points="32,941 1314,941 1326,929 1326,57 1314,45 32,45 20,57 20,929 32,941" stroke="#F0FFF0" fill="#F0FFF0"/>
 <polyline points="1314,941 1316,941 1318,940 1319,940 1321,939 1322,937 1324,936 1325,934 1325,933 1326,931 1326,929" stroke="#F0FFF0" fill="none"/>
 <polyline points="1326,57 1326,55 1325,53 1325,52 1324,50 1322,49 1321,47 1319,46 1318,46 1316,45 1314,45" stroke="#F0FFF0" fill="none"/>
 <polyline points="32,45 30,45 28,46 27,46 25,47 24,49 22,50 21,52 21,53 20,55 20,57" stroke="#F0FFF0" fill="none"/>
 <polyline points="20,929 20,931 21,933 21,934 22,936 24,937 25,939 27,940 28,940 30,941 32,941" stroke="#F0FFF0" fill="none"/>
 <polyline points="32,941 1314,941" stroke="#000000" fill="none"/>
 <polyline points="1314,941 1316,941 1318,940 1319,940 1321,939 1322,937 1324,936 1325,934 1325,933 1326,931 1326,929" stroke="#000000" fill="none"/>
 <polyline points="1326,929 1326,57" stroke="#000000" fill="none"/>
 <polyline points="1326,57 1326,55 1325,53 1325,52 1324,50 1322,49 1321,47 1319,46 1318,46 1316,45 1314,45" stroke="#000000" fill="none"/>
 <polyline points="1314,45 32,45" stroke="#000000" fill="none"/>
 <polyline points="32,45 30,45 28,46 27,46 25,47 24,49 22,50 21,52 21,53 20,55 20,57" stroke="#000000" fill="none"/>
 <polyline points="20,57 20,929" stroke="#000000" fill="none"/>
 <polyline points="20,929 20,931 21,933 21,934 22,936 24,937 25,939 27,940 28,940 30,941 32,941" stroke="#000000" fill="none"/>
 <text x="643" y="61" fill="#000000" font-family="Arial" font-size="12">Inventory</text>
 <polygon points="553,131 477,131 477,157 553,157 553,131" stroke="#C0C0C0" fill="#FFFFFF"/>
 <text x="484" y="147" fill="#000000" font-family="Arial" font-size="12">_PutItem</text>
 <polygon points="1039,315 969,315 969,341 1039,341 1039,315" stroke="#C0C0C0" fill="#FFFFFF"/>
 <text x="977" y="331" fill="#000000" font-family="Arial" font-size="12">GetItem</text>
 <polyline points="530,157 539,164 550,172 562,181 575,191 589,200 604,210 620,219 637,228 653,235 670,242 691,248 709,252 726,254 742,255 757,254 773,254 788,254 806,255 825,257 846,262 860,266 874,270 888,275 902,281 916,286 929,292 941,297 953,303 964,308 974,313" stroke="#0000CD" fill="none"/>
 <polygon points="975,311 979,315 974,314 975,311" stroke="#0000CD" fill="#0000CD"/>
 <polygon points="795,99 721,99 721,125 795,125 795,99" stroke="#C0C0C0" fill="#FFFFFF"/>
 <text x="729" y="115" fill="#000000" font-family="Arial" font-size="12">PopItem</text>
 <polyline points="554,139 568,137 583,135 600,133 617,131 634,129 652,126 669,124 686,122 701,120 716,118" stroke="#0000CD" fill="none"/>
 <polygon points="716,116 721,117 716,119 716,116" stroke="#0000CD" fill="#0000CD"/>
 <polygon points="1288,132 1192,132 1192,158 1288,158 1288,132" stroke="#C0C0C0" fill="#FFFFFF"/>
 <text x="1200" y="148" fill="#000000" font-family="Arial" font-size="12">CalcBagIdx</text>
 <polyline points="554,144 597,144 653,144 718,144 789,144 863,145 939,145 1011,145 1079,145 1139,145 1187,145" stroke="#0000CD" fill="none"/>
 <polygon points="1187,143 1192,145 1187,147 1187,143" stroke="#0000CD" fill="#0000CD"/>
 <polygon points="1283,88 1197,88 1197,114 1283,114 1283,88" stroke="#C0C0C0" fill="#FFFFFF"/>
 <text x="1204" y="104" fill="#000000" font-family="Arial" font-size="12">CalcSlotId</text>
 <polyline points="543,131 553,127 564,123 575,118 588,113 601,109 614,104 628,100 642,96 656,93 670,90 728,82 788,77 848,74 907,74 965,75 1020,78 1071,81 1117,86 1158,90 1191,94" stroke="#0000CD" fill="none"/>
 <polygon points="1192,92 1196,95 1191,96 1192,92" stroke="#0000CD" fill="#0000CD"/>
 <polygon points="146,115 78,115 78,141 146,141 146,115" stroke="#C0C0C0" fill="#FFFFFF"/>
 <text x="86" y="131" fill="#000000" font-family="Arial" font-size="12">PutItem</text>
 <polyline points="146,129 171,130 200,131 233,133 269,134 306,136 343,137 379,138 413,140 444,141 471,142" stroke="#0000CD" fill="none"/>
 <polygon points="471,141 476,142 471,144 471,141" stroke="#0000CD" fill="#0000CD"/>
 <polygon points="359,99 269,99 269,125 359,125 359,99" stroke="#C0C0C0" fill="#FFFFFF"/>
 <text x="276" y="115" fill="#000000" font-family="Arial" font-size="12">DeleteItem</text>
 <polyline points="146,125 156,124 167,124 178,123 190,122 203,121 215,120 227,119 240,118 252,117 263,116" stroke="#0000CD" fill="none"/>
 <polygon points="263,114 268,116 263,118 263,114" stroke="#0000CD" fill="#0000CD"/>
 <polyline points="360,119 370,121 381,123 392,125 404,126 416,128 427,130 439,132 450,134 461,135 471,137" stroke="#0000CD" fill="none"/>
 <polygon points="472,135 476,138 471,139 472,135" stroke="#0000CD" fill="#0000CD"/>
 <polyline points="360,112 389,112 422,112 459,112 498,112 539,112 579,112 618,112 655,112 688,112 716,112" stroke="#0000CD" fill="none"/>
 <polygon points="716,110 721,112 716,114 716,110" stroke="#0000CD" fill="#0000CD"/>
 <polyline points="1021,315 1036,304 1053,290 1074,274 1096,257 1119,239 1142,221 1164,204 1185,188 1203,173 1219,161" stroke="#0000CD" fill="none"/>
 <polygon points="1218,160 1223,158 1220,162 1218,160" stroke="#0000CD" fill="#0000CD"/>
 <polyline points="1010,315 1017,302 1025,286 1036,267 1049,246 1064,225 1080,202 1098,180 1118,159 1139,140 1162,123 1165,121 1168,120 1170,118 1173,117 1176,115 1179,114 1182,113 1185,112 1188,111 1191,110" stroke="#0000CD" fill="none"/>
 <polygon points="1191,108 1196,108 1192,111 1191,108" stroke="#0000CD" fill="#0000CD"/>
 <polygon points="1279,315 1201,315 1201,341 1279,341 1279,315" stroke="#C0C0C0" fill="#FFFFFF"/>
 <text x="1208" y="331" fill="#000000" font-family="Arial" font-size="12">_GetItem</text>
 <polyline points="1039,328 1052,328 1067,328 1083,328 1099,328 1116,328 1133,328 1149,328 1166,328 1181,328 1195,328" stroke="#0000CD" fill="none"/>
 <polygon points="1195,326 1200,328 1195,330 1195,326" stroke="#0000CD" fill="#0000CD"/>
 <polygon points="836,379 680,379 680,405 836,405 836,379" stroke="#C0C0C0" fill="#FFFFFF"/>
 <text x="687" y="395" fill="#000000" font-family="Arial" font-size="12">SetCustomItemData</text>
 <polyline points="808,379 822,375 838,371 854,367 870,363 887,359 904,354 920,350 936,346 950,342 964,339" stroke="#0000CD" fill="none"/>
 <polygon points="963,337 969,337 964,340 963,337" stroke="#0000CD" fill="#0000CD"/>
 <polyline points="793,125 798,127 804,130 809,132 814,135 820,138 825,141 831,144 836,147 841,150 846,154 865,169 883,185 901,202 917,219 933,237 948,254 961,270 973,285 984,299 992,310" stroke="#0000CD" fill="none"/>
 <polygon points="993,310 995,315 990,312 993,310" stroke="#0000CD" fill="#0000CD"/>
 <polyline points="795,115 824,117 859,119 898,122 941,125 986,128 1031,131 1074,134 1116,136 1154,139 1186,141" stroke="#0000CD" fill="none"/>
 <polygon points="1187,140 1192,142 1187,143 1187,140" stroke="#0000CD" fill="#0000CD"/>
 <polyline points="795,111 824,110 860,109 900,109 944,108 989,107 1035,105 1079,104 1121,104 1159,103 1191,102" stroke="#0000CD" fill="none"/>
 <polygon points="1191,100 1196,102 1191,104 1191,100" stroke="#0000CD" fill="#0000CD"/>
 <polygon points="799,731 717,731 717,757 799,757 799,731" stroke="#C0C0C0" fill="#FFFFFF"/>
 <text x="725" y="747" fill="#000000" font-family="Arial" font-size="12">_HasItem</text>
 <polygon points="1047,687 961,687 961,713 1047,713 1047,687" stroke="#C0C0C0" fill="#FFFFFF"/>
 <text x="968" y="703" fill="#000000" font-family="Arial" font-size="12">CalcSlotId</text>
 <polyline points="799,737 813,734 827,732 843,729 859,726 876,723 893,720 909,717 925,714 941,712 955,709" stroke="#0000CD" fill="none"/>
 <polygon points="955,707 960,708 956,710 955,707" stroke="#0000CD" fill="#0000CD"/>
 <polygon points="551,687 479,687 479,713 551,713 551,687" stroke="#C0C0C0" fill="#FFFFFF"/>
 <text x="486" y="703" fill="#000000" font-family="Arial" font-size="12">HasItem</text>
 <polyline points="552,707 565,709 580,712 596,715 613,718 630,721 647,724 665,727 681,730 697,733 712,736" stroke="#0000CD" fill="none"/>
 <polygon points="712,734 717,737 712,737 712,734" stroke="#0000CD" fill="#0000CD"/>
 <polygon points="799,643 717,643 717,669 799,669 799,643" stroke="#C0C0C0" fill="#FFFFFF"/>
 <text x="725" y="659" fill="#000000" font-family="Arial" font-size="12">_HasItem</text>
 <polyline points="552,693 565,691 580,688 596,685 613,682 630,679 647,676 665,673 681,670 697,667 712,664" stroke="#0000CD" fill="none"/>
 <polygon points="712,663 717,663 712,666 712,663" stroke="#0000CD" fill="#0000CD"/>
 <polyline points="799,663 813,666 827,668 843,671 859,674 876,677 893,680 909,683 925,686 941,688 955,691" stroke="#0000CD" fill="none"/>
 <polygon points="956,690 960,692 955,693 956,690" stroke="#0000CD" fill="#0000CD"/>
 <polygon points="837,423 679,423 679,449 837,449 837,423" stroke="#C0C0C0" fill="#FFFFFF"/>
 <text x="687" y="439" fill="#000000" font-family="Arial" font-size="12">GetCustomItemData</text>
 <polyline points="819,423 822,422 824,421 827,420 830,419 833,419 835,418 838,417 841,416 843,415 846,414 861,408 876,401 891,394 906,387 920,379 934,371 947,364 959,357 970,350 980,344" stroke="#0000CD" fill="none"/>
 <polygon points="979,342 984,341 981,345 979,342" stroke="#0000CD" fill="#0000CD"/>
 <polygon points="836,163 680,163 680,189 836,189 836,163" stroke="#C0C0C0" fill="#FFFFFF"/>
 <text x="687" y="179" fill="#000000" font-family="Arial" font-size="12">SetCustomItemData</text>
 <polyline points="824,189 826,190 829,191 831,192 833,193 835,194 838,194 840,195 842,196 844,197 846,198 864,208 881,219 898,230 914,243 929,255 944,268 957,280 969,291 979,302 988,311" stroke="#0000CD" fill="none"/>
 <polygon points="990,310 992,315 987,312 990,310" stroke="#0000CD" fill="#0000CD"/>
 <polygon points="836,207 680,207 680,233 836,233 836,207" stroke="#C0C0C0" fill="#FFFFFF"/>
 <text x="687" y="223" fill="#000000" font-family="Arial" font-size="12">SetCustomItemData</text>
 <polyline points="806,233 810,234 814,236 818,237 822,238 826,240 830,241 834,243 838,244 842,246 846,247 860,253 875,259 890,266 904,273 918,280 931,287 944,294 956,301 967,307 977,312" stroke="#0000CD" fill="none"/>
 <polygon points="978,311 982,315 976,314 978,311" stroke="#0000CD" fill="#0000CD"/>
 <polygon points="836,271 680,271 680,297 836,297 836,271" stroke="#C0C0C0" fill="#FFFFFF"/>
 <text x="687" y="287" fill="#000000" font-family="Arial" font-size="12">SetCustomItemData</text>
 <polyline points="831,297 844,299 858,302 872,304 886,307 900,309 914,312 928,314 940,317 953,319 964,321" stroke="#0000CD" fill="none"/>
 <polygon points="964,319 969,322 964,323 964,319" stroke="#0000CD" fill="#0000CD"/>
 <polygon points="1317,687 1163,687 1163,713 1317,713 1317,687" stroke="#C0C0C0" fill="#FFFFFF"/>
 <text x="1170" y="703" fill="#000000" font-family="Arial" font-size="12">SupportsContainers</text>
 <polyline points="1048,700 1057,700 1067,700 1078,700 1089,700 1100,700 1111,700 1123,700 1134,700 1146,700 1157,700" stroke="#0000CD" fill="none"/>
 <polygon points="1157,698 1162,700 1157,702 1157,698" stroke="#0000CD" fill="#0000CD"/>
 <polygon points="356,255 272,255 272,281 356,281 356,255" stroke="#C0C0C0" fill="#FFFFFF"/>
 <text x="279" y="271" fill="#000000" font-family="Arial" font-size="12">SwapItem</text>
 <polyline points="335,255 347,247 361,239 377,229 394,219 411,208 428,198 445,187 461,177 476,168 489,160" stroke="#0000CD" fill="none"/>
 <polygon points="489,158 494,157 491,161 489,158" stroke="#0000CD" fill="#0000CD"/>
 <polyline points="356,281 378,287 403,295 431,302 462,310 495,318 529,326 564,333 600,340 635,345 670,350 692,352 711,354 728,355 743,355 758,355 773,355 788,354 805,353 824,351 846,350 858,349 871,348 883,346 896,345 908,343 920,342 932,340 943,338 954,337 964,335" stroke="#0000CD" fill="none"/>
 <polygon points="963,333 969,334 964,337 963,333" stroke="#0000CD" fill="#0000CD"/>
 <polygon points="829,599 687,599 687,625 829,625 829,599" stroke="#C0C0C0" fill="#FFFFFF"/>
 <text x="694" y="615" fill="#000000" font-family="Arial" font-size="12">HasSpaceForItem</text>
 <polyline points="830,599 832,598 833,598 835,597 837,596 838,595 840,594 841,593 843,592 844,591 846,590 871,569 894,544 915,518 933,490 950,462 964,434 976,408 985,384 993,363 999,346" stroke="#0000CD" fill="none"/>
 <polygon points="997,345 1000,341 1000,346 997,345" stroke="#0000CD" fill="#0000CD"/>
 <polyline points="816,625 819,626 822,627 825,628 828,629 831,630 834,630 837,631 840,632 843,633 846,634 859,639 873,644 887,649 900,654 913,660 926,665 939,670 950,675 961,680 971,685" stroke="#0000CD" fill="none"/>
 <polygon points="972,683 976,687 971,686 972,683" stroke="#0000CD" fill="#0000CD"/>
 <polygon points="1089,599 919,599 919,625 1089,625 1089,599" stroke="#C0C0C0" fill="#FFFFFF"/>
 <text x="926" y="615" fill="#000000" font-family="Arial" font-size="12">CanItemFitInContainer</text>
 <polyline points="830,612 838,612 846,612 854,612 863,612 871,612 880,612 888,612 896,612 905,612 913,612" stroke="#0000CD" fill="none"/>
 <polygon points="913,610 918,612 913,614 913,610" stroke="#0000CD" fill="#0000CD"/>
 <polygon points="845,819 671,819 671,845 845,845 845,819" stroke="#C0C0C0" fill="#FFFFFF"/>
 <text x="678" y="835" fill="#000000" font-family="Arial" font-size="12">_HasItemByLoreGroup</text>
 <polyline points="822,819 824,818 827,817 829,816 832,815 834,815 836,814 839,813 841,812 844,811 846,810 863,802 879,793 895,783 911,773 926,763 940,753 953,743 965,733 976,725 985,717" stroke="#0000CD" fill="none"/>
 <polygon points="984,715 989,713 986,718 984,715" stroke="#0000CD" fill="#0000CD"/>
 <polygon points="845,775 671,775 671,801 845,801 845,775" stroke="#C0C0C0" fill="#FFFFFF"/>
 <text x="678" y="791" fill="#000000" font-family="Arial" font-size="12">_HasItemByLoreGroup</text>
 <polyline points="816,775 819,774 822,773 825,772 828,771 831,771 834,770 837,769 840,768 843,767 846,766 859,761 873,756 887,751 900,746 913,741 926,735 939,730 950,725 961,720 971,715" stroke="#0000CD" fill="none"/>
 <polygon points="971,714 976,713 972,717 971,714" stroke="#0000CD" fill="#0000CD"/>
 <polygon points="816,511 700,511 700,537 816,537 816,511" stroke="#C0C0C0" fill="#FFFFFF"/>
 <text x="708" y="527" fill="#000000" font-family="Arial" font-size="12">CheckNoDrop</text>
 <polyline points="816,515 819,514 822,513 826,512 829,511 832,509 835,508 838,506 840,505 843,503 846,502 866,489 885,473 903,457 920,439 936,422 951,404 964,387 975,372 985,358 993,346" stroke="#0000CD" fill="none"/>
 <polygon points="992,345 996,341 995,346 992,345" stroke="#0000CD" fill="#0000CD"/>
 <polyline points="816,533 819,534 822,535 826,536 829,537 832,538 835,540 838,541 840,543 843,544 846,546 857,554 867,562 874,570 880,579 885,587 889,596 895,605 901,614 908,624 918,634 924,640 930,645 936,651 943,656 949,661 956,666 962,671 968,676 974,680 980,684" stroke="#0000CD" fill="none"/>
 <polygon points="981,682 984,687 979,685 981,682" stroke="#0000CD" fill="#0000CD"/>
 <polygon points="822,863 694,863 694,889 822,889 822,863" stroke="#C0C0C0" fill="#FFFFFF"/>
 <text x="702" y="879" fill="#000000" font-family="Arial" font-size="12">_HasItemByUse</text>
 <polyline points="822,864 824,863 827,863 829,862 832,861 834,860 837,859 839,858 842,856 844,855 846,854 865,842 883,829 901,815 918,799 934,784 948,769 961,754 973,740 983,728 991,717" stroke="#0000CD" fill="none"/>
 <polygon points="990,716 995,713 993,718 990,716" stroke="#0000CD" fill="#0000CD"/>
 <polygon points="822,907 694,907 694,933 822,933 822,907" stroke="#C0C0C0" fill="#FFFFFF"/>
 <text x="702" y="923" fill="#000000" font-family="Arial" font-size="12">_HasItemByUse</text>
 <polyline points="822,909 824,908 827,907 829,906 832,905 834,904 837,903 839,902 842,901 844,899 846,898 868,882 888,864 907,845 925,825 941,804 955,784 968,765 979,747 988,731 995,718" stroke="#0000CD" fill="none"/>
 <polygon points="994,717 998,713 997,718 994,717" stroke="#0000CD" fill="#0000CD"/>
 <polygon points="793,555 723,555 723,581 793,581 793,555" stroke="#C0C0C0" fill="#FFFFFF"/>
 <text x="731" y="571" fill="#000000" font-family="Arial" font-size="12">GetItem</text>
 <polyline points="793,565 798,564 804,563 809,561 814,560 820,558 825,556 831,554 836,552 841,549 846,546 869,529 890,509 909,487 927,465 943,442 957,419 970,398 981,378 989,360 996,346" stroke="#0000CD" fill="none"/>
 <polygon points="995,345 998,341 998,347 995,345" stroke="#0000CD" fill="#0000CD"/>
 <polyline points="793,574 798,575 803,576 809,577 814,579 820,580 825,582 830,584 836,586 841,588 846,590 856,595 868,602 882,611 896,621 912,631 928,643 943,654 958,665 971,675 983,684" stroke="#0000CD" fill="none"/>
 <polygon points="984,683 987,687 982,685 984,683" stroke="#0000CD" fill="#0000CD"/>
 <polygon points="815,687 701,687 701,713 815,713 815,687" stroke="#C0C0C0" fill="#FFFFFF"/>
 <text x="708" y="703" fill="#000000" font-family="Arial" font-size="12">dumpInventory</text>
 <polyline points="816,700 829,700 843,700 857,700 872,700 886,700 901,700 915,700 929,700 943,700 955,700" stroke="#0000CD" fill="none"/>
 <polygon points="955,698 960,700 955,702 955,698" stroke="#0000CD" fill="#0000CD"/>
 <polygon points="811,467 705,467 705,493 811,493 811,467" stroke="#C0C0C0" fill="#FFFFFF"/>
 <text x="712" y="483" fill="#000000" font-family="Arial" font-size="12">FindFreeSlot</text>
 <polyline points="812,471 816,470 819,469 823,467 826,466 829,465 833,464 836,462 839,461 843,459 846,458 864,448 881,437 898,426 914,413 929,401 944,388 957,376 969,365 979,354 988,345" stroke="#0000CD" fill="none"/>
 <polygon points="987,344 992,341 990,346 987,344" stroke="#0000CD" fill="#0000CD"/>
 <polyline points="812,486 816,487 819,488 823,489 826,491 830,492 833,494 837,496 840,498 843,500 846,502 860,514 870,527 877,539 882,551 886,564 889,577 894,591 899,605 907,619 918,634 923,640 929,646 935,651 941,657 947,662 954,667 960,672 966,676 972,680 978,684" stroke="#0000CD" fill="none"/>
 <polygon points="979,683 982,687 977,686 979,683" stroke="#0000CD" fill="#0000CD"/>
 <polygon points="598,808 432,808 432,834 598,834 598,808" stroke="#C0C0C0" fill="#FFFFFF"/>
 <text x="440" y="824" fill="#000000" font-family="Arial" font-size="12">HasItemByLoreGroup</text>
 <polyline points="598,825 605,825 611,826 618,826 625,826 632,827 638,827 645,827 652,827 658,828 665,828" stroke="#0000CD" fill="none"/>
 <polygon points="665,826 670,828 665,830 665,826" stroke="#0000CD" fill="#0000CD"/>
 <polyline points="598,810 605,809 611,808 618,807 625,806 632,806 638,805 645,804 652,803 658,802 665,801" stroke="#0000CD" fill="none"/>
 <polygon points="665,799 670,800 666,802 665,799" stroke="#0000CD" fill="#0000CD"/>
 <polygon points="574,874 456,874 456,900 574,900 574,874" stroke="#C0C0C0" fill="#FFFFFF"/>
 <text x="463" y="890" fill="#000000" font-family="Arial" font-size="12">HasItemByUse</text>
 <polyline points="575,884 585,884 596,883 608,883 619,882 631,882 643,881 655,881 667,880 678,880 689,879" stroke="#0000CD" fill="none"/>
 <polygon points="689,877 694,879 689,881 689,877" stroke="#0000CD" fill="#0000CD"/>
 <polyline points="575,895 585,897 596,898 608,900 619,901 631,903 643,905 655,906 667,908 678,909 689,911" stroke="#0000CD" fill="none"/>
 <polygon points="689,909 694,911 689,912 689,909" stroke="#0000CD" fill="#0000CD"/>
 <polygon points="799,315 717,315 717,341 799,341 799,315" stroke="#C0C0C0" fill="#FFFFFF"/>
 <text x="724" y="331" fill="#000000" font-family="Arial" font-size="12">operator[]</text>
 <polyline points="800,328 815,328 830,328 847,328 865,328 882,328 900,328 917,328 934,328 950,328 964,328" stroke="#0000CD" fill="none"/>
 <polygon points="964,326 969,328 964,330 964,326" stroke="#0000CD" fill="#0000CD"/>
 <polygon points="161,160 63,160 63,186 161,186 161,160" stroke="#C0C0C0" fill="#FFFFFF"/>
 <text x="71" y="176" fill="#000000" font-family="Arial" font-size="12">PushCursor</text>
 <polygon points="169,949 58,949 55,952 55,975 166,975 169,972 169,949" stroke="#C0C0C0" fill="#FFFFFF"/>
 <polyline points="166,952 55,952" stroke="#C0C0C0" fill="none"/>
 <polyline points="166,952 166,975" stroke="#C0C0C0" fill="none"/>
 <polyline points="166,952 169,949" stroke="#C0C0C0" fill="none"/>
 <text x="63" y="965" fill="#000000" font-family="Arial" font-size="12">ItemInstQueue</text>
 <polygon points="155,993 72,993 69,996 69,1019 152,1019 155,1016 155,993" stroke="#C0C0C0" fill="#FFFFFF"/>
 <polyline points="152,996 69,996" stroke="#C0C0C0" fill="none"/>
 <polyline points="152,996 152,1019" stroke="#C0C0C0" fill="none"/>
 <polyline points="152,996 155,993" stroke="#C0C0C0" fill="none"/>
 <text x="77" y="1009" fill="#000000" font-family="Arial" font-size="12">EvolveInfo</text>
 <polygon points="150,206 74,206 74,232 150,232 150,206" stroke="#C0C0C0" fill="#FFFFFF"/>
 <text x="82" y="222" fill="#000000" font-family="Arial" font-size="12">Inventory</text>
 <polygon points="196,253 28,253 28,279 196,279 196,253" stroke="#C0C0C0" fill="#FFFFFF"/>
 <text x="36" y="269" fill="#000000" font-family="Arial" font-size="12">CalcMaterialFromSlot</text>
 <polygon points="154,304 70,304 70,330 154,330 154,304" stroke="#C0C0C0" fill="#FFFFFF"/>
 <text x="77" y="320" fill="#000000" font-family="Arial" font-size="12">~Inventory</text>
 <polygon points="196,361 28,361 28,387 196,387 196,361" stroke="#C0C0C0" fill="#FFFFFF"/>
 <text x="36" y="377" fill="#000000" font-family="Arial" font-size="12">CalcSlotFromMaterial</text>
 <polygon points="159,1037 68,1037 65,1040 65,1063 156,1063 159,1060 159,1037" stroke="#C0C0C0" fill="#FFFFFF"/>
 <polyline points="156,1040 65,1040" stroke="#C0C0C0" fill="none"/>
 <polyline points="156,1040 156,1063" stroke="#C0C0C0" fill="none"/>
 <polyline points="156,1040 159,1037" stroke="#C0C0C0" fill="none"/>
 <text x="72" y="1053" fill="#000000" font-family="Arial" font-size="12">EvoItemInst</text>
 <polygon points="165,501 59,501 59,527 165,527 165,501" stroke="#C0C0C0" fill="#FFFFFF"/>
 <text x="66" y="517" fill="#000000" font-family="Arial" font-size="12">CursorEmpty</text>
 <polygon points="165,650 59,650 59,676 165,676 165,650" stroke="#C0C0C0" fill="#FFFFFF"/>
 <text x="66" y="666" fill="#000000" font-family="Arial" font-size="12">cursor_begin</text>
 <polygon points="159,904 65,904 65,930 159,930 159,904" stroke="#C0C0C0" fill="#FFFFFF"/>
 <text x="73" y="920" fill="#000000" font-family="Arial" font-size="12">cursor_end</text>
 <polygon points="146,1081 81,1081 78,1084 78,1107 143,1107 146,1104 146,1081" stroke="#C0C0C0" fill="#FFFFFF"/>
 <polyline points="143,1084 78,1084" stroke="#C0C0C0" fill="none"/>
 <polyline points="143,1084 143,1107" stroke="#C0C0C0" fill="none"/>
 <polyline points="143,1084 146,1081" stroke="#C0C0C0" fill="none"/>
 <text x="86" y="1097" fill="#000000" font-family="Arial" font-size="12">ItemInst</text>
</svg>
