<?xml version="1.0"?>
<svg width="302" height="428" xmlns="http://www.w3.org/2000/svg" version="1.1">
 <polygon points="24,123 278,123 290,111 290,23 278,11 24,11 12,23 12,111 24,123" stroke="#FFFFE0" fill="#FFFFE0"/>
 <polyline points="278,123 280,123 282,122 283,122 285,121 286,119 288,118 289,116 289,115 290,113 290,111" stroke="#FFFFE0" fill="none"/>
 <polyline points="290,23 290,21 289,19 289,18 288,16 286,15 285,13 283,12 282,12 280,11 278,11" stroke="#FFFFE0" fill="none"/>
 <polyline points="24,11 22,11 20,12 19,12 17,13 16,15 14,16 13,18 13,19 12,21 12,23" stroke="#FFFFE0" fill="none"/>
 <polyline points="12,111 12,113 13,115 13,116 14,118 16,119 17,121 19,122 20,122 22,123 24,123" stroke="#FFFFE0" fill="none"/>
 <polyline points="24,123 278,123" stroke="#000000" fill="none"/>
 <polyline points="278,123 280,123 282,122 283,122 285,121 286,119 288,118 289,116 289,115 290,113 290,111" stroke="#000000" fill="none"/>
 <polyline points="290,111 290,23" stroke="#000000" fill="none"/>
 <polyline points="290,23 290,21 289,19 289,18 288,16 286,15 285,13 283,12 282,12 280,11 278,11" stroke="#000000" fill="none"/>
 <polyline points="278,11 24,11" stroke="#000000" fill="none"/>
 <polyline points="24,11 22,11 20,12 19,12 17,13 16,15 14,16 13,18 13,19 12,21 12,23" stroke="#000000" fill="none"/>
 <polyline points="12,23 12,111" stroke="#000000" fill="none"/>
 <polyline points="12,111 12,113 13,115 13,116 14,118 16,119 17,121 19,122 20,122 22,123 24,123" stroke="#000000" fill="none"/>
 <text x="130" y="27" fill="#000000" font-family="Arial" font-size="12">Item.h</text>
 <polygon points="248,133 205,133 202,136 202,159 245,159 248,156 248,133" stroke="#C0C0C0" fill="#FFFFFF"/>
 <polyline points="245,136 202,136" stroke="#C0C0C0" fill="none"/>
 <polyline points="245,136 245,159" stroke="#C0C0C0" fill="none"/>
 <polyline points="245,136 248,133" stroke="#C0C0C0" fill="none"/>
 <text x="209" y="149" fill="#000000" font-family="Arial" font-size="12">map</text>
 <polygon points="96,89 23,89 20,92 20,115 93,115 96,112 96,89" stroke="#C0C0C0" fill="#FFFF00"/>
 <polyline points="93,92 20,92" stroke="#C0C0C0" fill="none"/>
 <polyline points="93,92 93,115" stroke="#C0C0C0" fill="none"/>
 <polyline points="93,92 96,89" stroke="#C0C0C0" fill="none"/>
 <text x="28" y="105" fill="#000000" font-family="Arial" font-size="12">Inventory</text>
 <polyline points="96,112 106,114 116,117 126,120 137,123 148,125 158,128 168,131 178,133 187,136 196,138" stroke="#0000CD" fill="none"/>
 <polygon points="197,137 201,140 196,140 197,137" stroke="#0000CD" fill="#0000CD"/>
 <polygon points="250,177 203,177 200,180 200,203 247,203 250,200 250,177" stroke="#C0C0C0" fill="#FFFFFF"/>
 <polyline points="247,180 200,180" stroke="#C0C0C0" fill="none"/>
 <polyline points="247,180 247,203" stroke="#C0C0C0" fill="none"/>
 <polyline points="247,180 250,177" stroke="#C0C0C0" fill="none"/>
 <text x="208" y="193" fill="#000000" font-family="Arial" font-size="12">xtree</text>
 <polyline points="78,115 85,119 92,124 100,130 109,135 119,141 128,146 138,152 148,158 158,163 168,168 171,169 173,170 176,172 179,173 182,174 184,175 187,176 190,178 192,179 195,180" stroke="#0000CD" fill="none"/>
 <polygon points="196,178 200,181 195,181 196,178" stroke="#0000CD" fill="#0000CD"/>
 <polygon points="282,89 171,89 168,92 168,115 279,115 282,112 282,89" stroke="#C0C0C0" fill="#FFFFFF"/>
 <polyline points="279,92 168,92" stroke="#C0C0C0" fill="none"/>
 <polyline points="279,92 279,115" stroke="#C0C0C0" fill="none"/>
 <polyline points="279,92 282,89" stroke="#C0C0C0" fill="none"/>
 <text x="176" y="105" fill="#000000" font-family="Arial" font-size="12">ItemInstQueue</text>
 <polyline points="96,102 102,102 109,102 115,102 122,102 129,102 136,102 143,102 150,102 156,102 163,102" stroke="#0000CD" fill="none"/>
 <polygon points="163,100 168,102 163,104 163,100" stroke="#0000CD" fill="#0000CD"/>
 <polygon points="261,221 192,221 189,224 189,247 258,247 261,244 261,221" stroke="#C0C0C0" fill="#FFFFFF"/>
 <polyline points="258,224 189,224" stroke="#C0C0C0" fill="none"/>
 <polyline points="258,224 258,247" stroke="#C0C0C0" fill="none"/>
 <polyline points="258,224 261,221" stroke="#C0C0C0" fill="none"/>
 <text x="197" y="237" fill="#000000" font-family="Arial" font-size="12">debug.h</text>
 <polyline points="68,115 74,123 81,131 89,141 99,151 109,162 119,172 131,183 143,193 155,203 168,212 170,213 171,214 173,215 174,216 176,217 178,217 179,218 181,219 182,220 184,221" stroke="#0000CD" fill="none"/>
 <polygon points="185,219 189,223 184,222 185,219" stroke="#0000CD" fill="#0000CD"/>
 <polygon points="259,45 194,45 191,48 191,71 256,71 259,68 259,45" stroke="#C0C0C0" fill="#FFFFFF"/>
 <polyline points="256,48 191,48" stroke="#C0C0C0" fill="none"/>
 <polyline points="256,48 256,71" stroke="#C0C0C0" fill="none"/>
 <polyline points="256,48 259,45" stroke="#C0C0C0" fill="none"/>
 <text x="199" y="61" fill="#000000" font-family="Arial" font-size="12">ItemInst</text>
 <polyline points="96,92 104,90 113,87 122,85 132,83 141,80 150,77 160,75 169,73 178,70 186,68" stroke="#0000CD" fill="none"/>
 <polygon points="186,67 191,67 186,70 186,67" stroke="#0000CD" fill="#0000CD"/>
 <polygon points="255,265 198,265 195,268 195,291 252,291 255,288 255,265" stroke="#C0C0C0" fill="#FFFFFF"/>
 <polyline points="252,268 195,268" stroke="#C0C0C0" fill="none"/>
 <polyline points="252,268 252,291" stroke="#C0C0C0" fill="none"/>
 <polyline points="252,268 255,265" stroke="#C0C0C0" fill="none"/>
 <text x="202" y="281" fill="#000000" font-family="Arial" font-size="12">xstring</text>
 <polyline points="64,115 69,125 75,137 83,151 92,166 102,181 113,197 125,213 139,229 153,243 168,256 170,257 172,259 174,260 176,262 178,263 181,264 183,265 185,266 188,267 190,268" stroke="#0000CD" fill="none"/>
 <polygon points="190,266 194,270 189,270 190,266" stroke="#0000CD" fill="#0000CD"/>
 <polygon points="256,309 197,309 194,312 194,335 253,335 256,332 256,309" stroke="#C0C0C0" fill="#FFFFFF"/>
 <polyline points="253,312 194,312" stroke="#C0C0C0" fill="none"/>
 <polyline points="253,312 253,335" stroke="#C0C0C0" fill="none"/>
 <polyline points="253,312 256,309" stroke="#C0C0C0" fill="none"/>
 <text x="202" y="325" fill="#000000" font-family="Arial" font-size="12">stdio.h</text>
 <polyline points="62,115 66,127 71,143 78,160 86,180 96,201 108,222 120,243 135,264 151,283 168,300 170,301 172,303 174,304 176,306 178,307 180,308 183,309 185,311 187,312 189,313" stroke="#0000CD" fill="none"/>
 <polygon points="190,311 194,314 189,314 190,311" stroke="#0000CD" fill="#0000CD"/>
 <polygon points="272,353 181,353 178,356 178,379 269,379 272,376 272,353" stroke="#C0C0C0" fill="#FFFFFF"/>
 <polyline points="269,356 178,356" stroke="#C0C0C0" fill="none"/>
 <polyline points="269,356 269,379" stroke="#C0C0C0" fill="none"/>
 <polyline points="269,356 272,353" stroke="#C0C0C0" fill="none"/>
 <text x="186" y="369" fill="#000000" font-family="Arial" font-size="12">shareddb.h</text>
 <polyline points="60,115 63,129 67,148 73,169 81,194 90,219 102,246 115,273 130,298 148,322 168,344 169,345 169,345 170,346 171,346 172,347 172,348 173,348 174,349 175,349 176,350" stroke="#0000CD" fill="none"/>
 <polygon points="177,349 181,353 175,352 177,349" stroke="#0000CD" fill="#0000CD"/>
 <polygon points="242,397 211,397 208,400 208,423 239,423 242,420 242,397" stroke="#C0C0C0" fill="#FFFFFF"/>
 <polyline points="239,400 208,400" stroke="#C0C0C0" fill="none"/>
 <polyline points="239,400 239,423" stroke="#C0C0C0" fill="none"/>
 <polyline points="239,400 242,397" stroke="#C0C0C0" fill="none"/>
 <text x="215" y="413" fill="#000000" font-family="Arial" font-size="12">list</text>
 <polyline points="59,115 61,131 64,153 69,179 76,207 85,238 96,270 110,302 126,333 145,362 168,388 171,391 174,393 177,395 181,397 184,399 188,401 192,402 195,404 199,405 202,406" stroke="#0000CD" fill="none"/>
 <polygon points="203,404 207,407 202,408 203,404" stroke="#0000CD" fill="#0000CD"/>
</svg>
