<?xml version="1.0"?>
<svg width="338" height="374" xmlns="http://www.w3.org/2000/svg" version="1.1">
 <polyline points="74,187 100,187 110,18 118,18" stroke="#8C2020" fill="none"/>
 <polyline points="74,187 100,187 110,44 118,44" stroke="#8C2020" fill="none"/>
 <polyline points="74,187 100,187 110,70 118,70" stroke="#8C2020" fill="none"/>
 <polyline points="74,187 100,187 110,96 118,96" stroke="#8C2020" fill="none"/>
 <polyline points="74,187 100,187 110,122 118,122" stroke="#8C2020" fill="none"/>
 <polyline points="74,187 100,187 110,148 118,148" stroke="#8C2020" fill="none"/>
 <polyline points="74,187 100,187 110,174 118,174" stroke="#8C2020" fill="none"/>
 <polyline points="74,187 100,187 110,200 118,200" stroke="#8C2020" fill="none"/>
 <polyline points="74,187 100,187 110,226 118,226" stroke="#8C2020" fill="none"/>
 <polyline points="74,187 100,187 110,252 118,252" stroke="#8C2020" fill="none"/>
 <polyline points="74,187 100,187 110,278 118,278" stroke="#8C2020" fill="none"/>
 <polyline points="74,187 100,187 110,304 118,304" stroke="#8C2020" fill="none"/>
 <polyline points="74,187 100,187 110,330 118,330" stroke="#8C2020" fill="none"/>
 <polyline points="74,187 100,187 110,356 118,356" stroke="#8C2020" fill="none"/>
 <polygon points="7,187 12,176 69,176 74,187 69,198 12,198 7,187" stroke="#20208C" fill="#FFFFFF"/>
 <text x="15" y="189" fill="#8C2020" font-family="Arial" font-size="10">Inventory</text>
 <ellipse cx="78" cy="187" rx="4" ry="4" stroke="#8C2020" fill="#8C2020"/>
 <polygon points="123,7 170,7 165,29 118,29 123,7" stroke="#20208C" fill="#FFFFFF"/>
 <text x="126" y="20" fill="#000000" font-family="Arial" font-size="10">Item.h</text>
 <ellipse cx="174" cy="18" rx="4" ry="4" stroke="#8C2020" fill="#8C2020"/>
 <polygon points="118,44 123,33 160,33 165,44 160,55 123,55 118,44" stroke="#20208C" fill="#FFFFFF"/>
 <text x="126" y="46" fill="#000000" font-family="Arial" font-size="10">_Tree</text>
 <ellipse cx="169" cy="44" rx="4" ry="4" stroke="#8C2020" fill="#8C2020"/>
 <polygon points="118,70 123,59 207,59 212,70 207,81 123,81 118,70" stroke="#20208C" fill="#FFFFFF"/>
 <text x="126" y="72" fill="#000000" font-family="Arial" font-size="10">_Tree_iterator</text>
 <ellipse cx="216" cy="70" rx="4" ry="4" stroke="#8C2020" fill="#8C2020"/>
 <polygon points="118,96 123,85 175,85 180,96 175,107 123,107 118,96" stroke="#20208C" fill="#FFFFFF"/>
 <text x="126" y="98" fill="#000000" font-family="Arial" font-size="10">ItemInst</text>
 <ellipse cx="184" cy="96" rx="4" ry="4" stroke="#8C2020" fill="#8C2020"/>
 <polygon points="118,122 123,111 246,111 251,122 246,133 123,133 118,122" stroke="#20208C" fill="#FFFFFF"/>
 <text x="126" y="124" fill="#000000" font-family="Arial" font-size="10">_Tree_const_iterator</text>
 <ellipse cx="255" cy="122" rx="4" ry="4" stroke="#8C2020" fill="#8C2020"/>
 <polygon points="118,148 123,137 196,137 201,148 196,159 123,159 118,148" stroke="#20208C" fill="#FFFFFF"/>
 <text x="126" y="150" fill="#000000" font-family="Arial" font-size="10">Item_Struct</text>
 <ellipse cx="205" cy="148" rx="4" ry="4" stroke="#8C2020" fill="#8C2020"/>
 <polygon points="118,174 123,163 225,163 230,174 225,185 123,185 118,174" stroke="#20208C" fill="#FFFFFF"/>
 <text x="126" y="176" fill="#000000" font-family="Arial" font-size="10">SharedDatabase</text>
 <ellipse cx="234" cy="174" rx="4" ry="4" stroke="#8C2020" fill="#8C2020"/>
 <polygon points="118,200 123,189 199,189 204,200 199,211 123,211 118,200" stroke="#20208C" fill="#FFFFFF"/>
 <text x="126" y="202" fill="#000000" font-family="Arial" font-size="10">basic_string</text>
 <ellipse cx="208" cy="200" rx="4" ry="4" stroke="#8C2020" fill="#8C2020"/>
 <polygon points="118,226 123,215 316,215 321,226 316,237 123,237 118,226" stroke="#20208C" fill="#FFFFFF"/>
 <text x="126" y="228" fill="#000000" font-family="Arial" font-size="10">_Tree_unchecked_const_iterator</text>
 <ellipse cx="325" cy="226" rx="4" ry="4" stroke="#8C2020" fill="#8C2020"/>
 <polygon points="118,252 123,241 196,241 201,252 196,263 123,263 118,252" stroke="#20208C" fill="#FFFFFF"/>
 <text x="126" y="254" fill="#000000" font-family="Arial" font-size="10">EQEMuLog</text>
 <ellipse cx="205" cy="252" rx="4" ry="4" stroke="#8C2020" fill="#8C2020"/>
 <polygon points="118,278 123,267 194,267 199,278 194,289 123,289 118,278" stroke="#20208C" fill="#FFFFFF"/>
 <text x="126" y="280" fill="#000000" font-family="Arial" font-size="10">_Pair_base</text>
 <ellipse cx="203" cy="278" rx="4" ry="4" stroke="#8C2020" fill="#8C2020"/>
 <polygon points="118,304 123,293 243,293 248,304 243,315 123,315 118,304" stroke="#20208C" fill="#FFFFFF"/>
 <text x="126" y="306" fill="#000000" font-family="Arial" font-size="10">_List_const_iterator</text>
 <ellipse cx="252" cy="304" rx="4" ry="4" stroke="#8C2020" fill="#8C2020"/>
 <polygon points="118,330 123,319 213,319 218,330 213,341 123,341 118,330" stroke="#20208C" fill="#FFFFFF"/>
 <text x="126" y="332" fill="#000000" font-family="Arial" font-size="10">ItemInstQueue</text>
 <ellipse cx="222" cy="330" rx="4" ry="4" stroke="#8C2020" fill="#8C2020"/>
 <polygon points="118,356 123,345 154,345 159,356 154,367 123,367 118,356" stroke="#20208C" fill="#FFFFFF"/>
 <text x="126" y="358" fill="#000000" font-family="Arial" font-size="10">map</text>
 <ellipse cx="163" cy="356" rx="4" ry="4" stroke="#8C2020" fill="#8C2020"/>
</svg>
