<?xml version="1.0"?>
<svg width="247" height="478" xmlns="http://www.w3.org/2000/svg" version="1.1">
 <polyline points="129,18 137,18 147,239 173,239" stroke="#8C2020" fill="none"/>
 <polyline points="129,44 137,44 147,239 173,239" stroke="#8C2020" fill="none"/>
 <polyline points="129,70 137,70 147,239 173,239" stroke="#8C2020" fill="none"/>
 <polyline points="129,96 137,96 147,239 173,239" stroke="#8C2020" fill="none"/>
 <polyline points="129,122 137,122 147,239 173,239" stroke="#8C2020" fill="none"/>
 <polyline points="129,148 137,148 147,239 173,239" stroke="#8C2020" fill="none"/>
 <polyline points="129,174 137,174 147,239 173,239" stroke="#8C2020" fill="none"/>
 <polyline points="129,200 137,200 147,239 173,239" stroke="#8C2020" fill="none"/>
 <polyline points="129,226 137,226 147,239 173,239" stroke="#8C2020" fill="none"/>
 <polyline points="129,252 137,252 147,239 173,239" stroke="#8C2020" fill="none"/>
 <polyline points="129,278 137,278 147,239 173,239" stroke="#8C2020" fill="none"/>
 <polyline points="129,304 137,304 147,239 173,239" stroke="#8C2020" fill="none"/>
 <polyline points="129,330 137,330 147,239 173,239" stroke="#8C2020" fill="none"/>
 <polyline points="129,356 137,356 147,239 173,239" stroke="#8C2020" fill="none"/>
 <polyline points="129,382 137,382 147,239 173,239" stroke="#8C2020" fill="none"/>
 <polyline points="129,408 137,408 147,239 173,239" stroke="#8C2020" fill="none"/>
 <polyline points="129,434 137,434 147,239 173,239" stroke="#8C2020" fill="none"/>
 <polyline points="129,460 137,460 147,239 173,239" stroke="#8C2020" fill="none"/>
 <polygon points="173,239 178,228 235,228 240,239 235,250 178,250 173,239" stroke="#20208C" fill="#FFFFFF"/>
 <text x="181" y="241" fill="#8C2020" font-family="Arial" font-size="10">Inventory</text>
 <ellipse cx="169" cy="239" rx="4" ry="4" stroke="#8C2020" fill="#8C2020"/>
 <polygon points="30,18 35,7 124,7 129,18 124,29 35,29 30,18" stroke="#20208C" fill="#FFFFFF"/>
 <text x="38" y="20" fill="#000000" font-family="Arial" font-size="10">ZoneDatabase</text>
 <ellipse cx="26" cy="18" rx="4" ry="4" stroke="#8C2020" fill="#8C2020"/>
 <polygon points="72,44 77,33 124,33 129,44 124,55 77,55 72,44" stroke="#20208C" fill="#FFFFFF"/>
 <text x="80" y="46" fill="#000000" font-family="Arial" font-size="10">Corpse</text>
 <ellipse cx="68" cy="44" rx="4" ry="4" stroke="#8C2020" fill="#8C2020"/>
 <polygon points="84,70 89,59 124,59 129,70 124,81 89,81 84,70" stroke="#20208C" fill="#FFFFFF"/>
 <text x="92" y="72" fill="#000000" font-family="Arial" font-size="10">Merc</text>
 <ellipse cx="80" cy="70" rx="4" ry="4" stroke="#8C2020" fill="#8C2020"/>
 <polygon points="82,96 87,85 124,85 129,96 124,107 87,107 82,96" stroke="#20208C" fill="#FFFFFF"/>
 <text x="90" y="98" fill="#000000" font-family="Arial" font-size="10">Trade</text>
 <ellipse cx="78" cy="96" rx="4" ry="4" stroke="#8C2020" fill="#8C2020"/>
 <polygon points="79,122 84,111 124,111 129,122 124,133 84,133 79,122" stroke="#20208C" fill="#FFFFFF"/>
 <text x="87" y="124" fill="#000000" font-family="Arial" font-size="10">Doors</text>
 <ellipse cx="75" cy="122" rx="4" ry="4" stroke="#8C2020" fill="#8C2020"/>
 <polygon points="40,148 45,137 124,137 129,148 124,159 45,159 40,148" stroke="#20208C" fill="#FFFFFF"/>
 <text x="48" y="150" fill="#000000" font-family="Arial" font-size="10">TitleManager</text>
 <ellipse cx="36" cy="148" rx="4" ry="4" stroke="#8C2020" fill="#8C2020"/>
 <polygon points="88,174 93,163 124,163 129,174 124,185 93,185 88,174" stroke="#20208C" fill="#FFFFFF"/>
 <text x="96" y="176" fill="#000000" font-family="Arial" font-size="10">Mob</text>
 <ellipse cx="84" cy="174" rx="4" ry="4" stroke="#8C2020" fill="#8C2020"/>
 <polygon points="80,200 85,189 124,189 129,200 124,211 85,211 80,200" stroke="#20208C" fill="#FFFFFF"/>
 <text x="88" y="202" fill="#000000" font-family="Arial" font-size="10">Client</text>
 <ellipse cx="76" cy="200" rx="4" ry="4" stroke="#8C2020" fill="#8C2020"/>
 <polygon points="17,226 22,215 124,215 129,226 124,237 22,237 17,226" stroke="#20208C" fill="#FFFFFF"/>
 <text x="25" y="228" fill="#000000" font-family="Arial" font-size="10">SharedDatabase</text>
 <ellipse cx="13" cy="226" rx="4" ry="4" stroke="#8C2020" fill="#8C2020"/>
 <polygon points="93,252 98,241 124,241 129,252 124,263 98,263 93,252" stroke="#20208C" fill="#FFFFFF"/>
 <text x="101" y="254" fill="#000000" font-family="Arial" font-size="10">Bot</text>
 <ellipse cx="89" cy="252" rx="4" ry="4" stroke="#8C2020" fill="#8C2020"/>
 <polygon points="24,278 29,267 124,267 129,278 124,289 29,289 24,278" stroke="#20208C" fill="#FFFFFF"/>
 <text x="32" y="280" fill="#000000" font-family="Arial" font-size="10">WorldDatabase</text>
 <ellipse cx="20" cy="278" rx="4" ry="4" stroke="#8C2020" fill="#8C2020"/>
 <polygon points="67,304 72,293 124,293 129,304 124,315 72,315 67,304" stroke="#20208C" fill="#FFFFFF"/>
 <text x="75" y="306" fill="#000000" font-family="Arial" font-size="10">ItemInst</text>
 <ellipse cx="63" cy="304" rx="4" ry="4" stroke="#8C2020" fill="#8C2020"/>
 <polygon points="80,330 85,319 124,319 129,330 124,341 85,341 80,330" stroke="#20208C" fill="#FFFFFF"/>
 <text x="88" y="332" fill="#000000" font-family="Arial" font-size="10">Client</text>
 <ellipse cx="76" cy="330" rx="4" ry="4" stroke="#8C2020" fill="#8C2020"/>
 <polygon points="58,356 63,345 124,345 129,356 124,367 63,367 58,356" stroke="#20208C" fill="#FFFFFF"/>
 <text x="66" y="358" fill="#000000" font-family="Arial" font-size="10">Database</text>
 <ellipse cx="54" cy="356" rx="4" ry="4" stroke="#8C2020" fill="#8C2020"/>
 <polygon points="75,382 80,371 124,371 129,382 124,393 80,393 75,382" stroke="#20208C" fill="#FFFFFF"/>
 <text x="83" y="384" fill="#000000" font-family="Arial" font-size="10">Object</text>
 <ellipse cx="71" cy="382" rx="4" ry="4" stroke="#8C2020" fill="#8C2020"/>
 <polygon points="28,408 33,397 124,397 129,408 124,419 33,419 28,408" stroke="#20208C" fill="#FFFFFF"/>
 <text x="36" y="410" fill="#000000" font-family="Arial" font-size="10">QuestManager</text>
 <ellipse cx="24" cy="408" rx="4" ry="4" stroke="#8C2020" fill="#8C2020"/>
 <polygon points="86,434 91,423 124,423 129,434 124,445 91,445 86,434" stroke="#20208C" fill="#FFFFFF"/>
 <text x="94" y="436" fill="#000000" font-family="Arial" font-size="10">NPC</text>
 <ellipse cx="82" cy="434" rx="4" ry="4" stroke="#8C2020" fill="#8C2020"/>
 <polygon points="82,449 129,449 124,471 77,471 82,449" stroke="#20208C" fill="#FFFFFF"/>
 <text x="85" y="462" fill="#000000" font-family="Arial" font-size="10">Item.h</text>
 <ellipse cx="73" cy="460" rx="4" ry="4" stroke="#8C2020" fill="#8C2020"/>
</svg>
