<?xml version="1.0"?>
<svg width="294" height="120" xmlns="http://www.w3.org/2000/svg" version="1.1">
 <polygon points="24,79 270,79 282,67 282,23 270,11 24,11 12,23 12,67 24,79" stroke="#FFFFE0" fill="#FFFFE0"/>
 <polyline points="270,79 272,79 274,78 275,78 277,77 278,75 280,74 281,72 281,71 282,69 282,67" stroke="#FFFFE0" fill="none"/>
 <polyline points="282,23 282,21 281,19 281,18 280,16 278,15 277,13 275,12 274,12 272,11 270,11" stroke="#FFFFE0" fill="none"/>
 <polyline points="24,11 22,11 20,12 19,12 17,13 16,15 14,16 13,18 13,19 12,21 12,23" stroke="#FFFFE0" fill="none"/>
 <polyline points="12,67 12,69 13,71 13,72 14,74 16,75 17,77 19,78 20,78 22,79 24,79" stroke="#FFFFE0" fill="none"/>
 <polyline points="24,79 270,79" stroke="#000000" fill="none"/>
 <polyline points="270,79 272,79 274,78 275,78 277,77 278,75 280,74 281,72 281,71 282,69 282,67" stroke="#000000" fill="none"/>
 <polyline points="282,67 282,23" stroke="#000000" fill="none"/>
 <polyline points="282,23 282,21 281,19 281,18 280,16 278,15 277,13 275,12 274,12 272,11 270,11" stroke="#000000" fill="none"/>
 <polyline points="270,11 24,11" stroke="#000000" fill="none"/>
 <polyline points="24,11 22,11 20,12 19,12 17,13 16,15 14,16 13,18 13,19 12,21 12,23" stroke="#000000" fill="none"/>
 <polyline points="12,23 12,67" stroke="#000000" fill="none"/>
 <polyline points="12,67 12,69 13,71 13,72 14,74 16,75 17,77 19,78 20,78 22,79 24,79" stroke="#000000" fill="none"/>
 <text x="126" y="27" fill="#000000" font-family="Arial" font-size="12">Item.h</text>
 <polygon points="274,45 209,45 206,48 206,71 271,71 274,68 274,45" stroke="#C0C0C0" fill="#FFFFFF"/>
 <polyline points="271,48 206,48" stroke="#C0C0C0" fill="none"/>
 <polyline points="271,48 271,71" stroke="#C0C0C0" fill="none"/>
 <polyline points="271,48 274,45" stroke="#C0C0C0" fill="none"/>
 <text x="214" y="61" fill="#000000" font-family="Arial" font-size="12">ItemInst</text>
 <polygon points="134,45 23,45 20,48 20,71 131,71 134,68 134,45" stroke="#C0C0C0" fill="#FFFF00"/>
 <polyline points="131,48 20,48" stroke="#C0C0C0" fill="none"/>
 <polyline points="131,48 131,71" stroke="#C0C0C0" fill="none"/>
 <polyline points="131,48 134,45" stroke="#C0C0C0" fill="none"/>
 <text x="28" y="61" fill="#000000" font-family="Arial" font-size="12">ItemInstQueue</text>
 <polyline points="134,58 141,58 147,58 154,58 161,58 168,58 174,58 181,58 188,58 194,58 200,58" stroke="#0000CD" fill="none"/>
 <polygon points="201,56 206,58 201,60 201,56" stroke="#0000CD" fill="#0000CD"/>
 <polygon points="257,89 226,89 223,92 223,115 254,115 257,112 257,89" stroke="#C0C0C0" fill="#FFFFFF"/>
 <polyline points="254,92 223,92" stroke="#C0C0C0" fill="none"/>
 <polyline points="254,92 254,115" stroke="#C0C0C0" fill="none"/>
 <polyline points="254,92 257,89" stroke="#C0C0C0" fill="none"/>
 <text x="230" y="105" fill="#000000" font-family="Arial" font-size="12">list</text>
 <polyline points="125,71 134,73 144,76 154,79 164,81 174,84 184,86 193,89 202,91 210,94 217,96" stroke="#0000CD" fill="none"/>
 <polygon points="218,94 222,97 217,98 218,94" stroke="#0000CD" fill="#0000CD"/>
</svg>
