<?xml version="1.0"?>
<svg width="302" height="92" xmlns="http://www.w3.org/2000/svg" version="1.1">
 <polygon points="24,79 278,79 290,67 290,23 278,11 24,11 12,23 12,67 24,79" stroke="#FFFFE0" fill="#FFFFE0"/>
 <polyline points="278,79 280,79 282,78 283,78 285,77 286,75 288,74 289,72 289,71 290,69 290,67" stroke="#FFFFE0" fill="none"/>
 <polyline points="290,23 290,21 289,19 289,18 288,16 286,15 285,13 283,12 282,12 280,11 278,11" stroke="#FFFFE0" fill="none"/>
 <polyline points="24,11 22,11 20,12 19,12 17,13 16,15 14,16 13,18 13,19 12,21 12,23" stroke="#FFFFE0" fill="none"/>
 <polyline points="12,67 12,69 13,71 13,72 14,74 16,75 17,77 19,78 20,78 22,79 24,79" stroke="#FFFFE0" fill="none"/>
 <polyline points="24,79 278,79" stroke="#000000" fill="none"/>
 <polyline points="278,79 280,79 282,78 283,78 285,77 286,75 288,74 289,72 289,71 290,69 290,67" stroke="#000000" fill="none"/>
 <polyline points="290,67 290,23" stroke="#000000" fill="none"/>
 <polyline points="290,23 290,21 289,19 289,18 288,16 286,15 285,13 283,12 282,12 280,11 278,11" stroke="#000000" fill="none"/>
 <polyline points="278,11 24,11" stroke="#000000" fill="none"/>
 <polyline points="24,11 22,11 20,12 19,12 17,13 16,15 14,16 13,18 13,19 12,21 12,23" stroke="#000000" fill="none"/>
 <polyline points="12,23 12,67" stroke="#000000" fill="none"/>
 <polyline points="12,67 12,69 13,71 13,72 14,74 16,75 17,77 19,78 20,78 22,79 24,79" stroke="#000000" fill="none"/>
 <text x="130" y="27" fill="#000000" font-family="Arial" font-size="12">Item.h</text>
 <polygon points="282,45 171,45 168,48 168,71 279,71 282,68 282,45" stroke="#C0C0C0" fill="#FFFF00"/>
 <polyline points="279,48 168,48" stroke="#C0C0C0" fill="none"/>
 <polyline points="279,48 279,71" stroke="#C0C0C0" fill="none"/>
 <polyline points="279,48 282,45" stroke="#C0C0C0" fill="none"/>
 <text x="176" y="61" fill="#000000" font-family="Arial" font-size="12">ItemInstQueue</text>
 <polygon points="96,45 23,45 20,48 20,71 93,71 96,68 96,45" stroke="#C0C0C0" fill="#FFFFFF"/>
 <polyline points="93,48 20,48" stroke="#C0C0C0" fill="none"/>
 <polyline points="93,48 93,71" stroke="#C0C0C0" fill="none"/>
 <polyline points="93,48 96,45" stroke="#C0C0C0" fill="none"/>
 <text x="28" y="61" fill="#000000" font-family="Arial" font-size="12">Inventory</text>
 <polyline points="96,58 102,58 109,58 115,58 122,58 129,58 136,58 143,58 150,58 156,58 163,58" stroke="#0000CD" fill="none"/>
 <polygon points="163,56 168,58 163,60 163,56" stroke="#0000CD" fill="#0000CD"/>
</svg>
