<?xml version="1.0"?>
<svg width="180" height="628" xmlns="http://www.w3.org/2000/svg" version="1.1">
 <polygon points="24,615 156,615 168,603 168,23 156,11 24,11 12,23 12,603 24,615" stroke="#FFFFE0" fill="#FFFFE0"/>
 <polyline points="156,615 158,615 160,614 161,614 163,613 164,611 166,610 167,608 167,607 168,605 168,603" stroke="#FFFFE0" fill="none"/>
 <polyline points="168,23 168,21 167,19 167,18 166,16 164,15 163,13 161,12 160,12 158,11 156,11" stroke="#FFFFE0" fill="none"/>
 <polyline points="24,11 22,11 20,12 19,12 17,13 16,15 14,16 13,18 13,19 12,21 12,23" stroke="#FFFFE0" fill="none"/>
 <polyline points="12,603 12,605 13,607 13,608 14,610 16,611 17,613 19,614 20,614 22,615 24,615" stroke="#FFFFE0" fill="none"/>
 <polyline points="24,615 156,615" stroke="#000000" fill="none"/>
 <polyline points="156,615 158,615 160,614 161,614 163,613 164,611 166,610 167,608 167,607 168,605 168,603" stroke="#000000" fill="none"/>
 <polyline points="168,603 168,23" stroke="#000000" fill="none"/>
 <polyline points="168,23 168,21 167,19 167,18 166,16 164,15 163,13 161,12 160,12 158,11 156,11" stroke="#000000" fill="none"/>
 <polyline points="156,11 24,11" stroke="#000000" fill="none"/>
 <polyline points="24,11 22,11 20,12 19,12 17,13 16,15 14,16 13,18 13,19 12,21 12,23" stroke="#000000" fill="none"/>
 <polyline points="12,23 12,603" stroke="#000000" fill="none"/>
 <polyline points="12,603 12,605 13,607 13,608 14,610 16,611 17,613 19,614 20,614 22,615 24,615" stroke="#000000" fill="none"/>
 <text x="69" y="27" fill="#000000" font-family="Arial" font-size="12">Item.h</text>
 <polygon points="32,439 148,439 160,427 160,57 148,45 32,45 20,57 20,427 32,439" stroke="#F0FFF0" fill="#F0FFF0"/>
 <polyline points="148,439 150,439 152,438 153,438 155,437 156,435 158,434 159,432 159,431 160,429 160,427" stroke="#F0FFF0" fill="none"/>
 <polyline points="160,57 160,55 159,53 159,52 158,50 156,49 155,47 153,46 152,46 150,45 148,45" stroke="#F0FFF0" fill="none"/>
 <polyline points="32,45 30,45 28,46 27,46 25,47 24,49 22,50 21,52 21,53 20,55 20,57" stroke="#F0FFF0" fill="none"/>
 <polyline points="20,427 20,429 21,431 21,432 22,434 24,435 25,437 27,438 28,438 30,439 32,439" stroke="#F0FFF0" fill="none"/>
 <polyline points="32,439 148,439" stroke="#000000" fill="none"/>
 <polyline points="148,439 150,439 152,438 153,438 155,437 156,435 158,434 159,432 159,431 160,429 160,427" stroke="#000000" fill="none"/>
 <polyline points="160,427 160,57" stroke="#000000" fill="none"/>
 <polyline points="160,57 160,55 159,53 159,52 158,50 156,49 155,47 153,46 152,46 150,45 148,45" stroke="#000000" fill="none"/>
 <polyline points="148,45 32,45" stroke="#000000" fill="none"/>
 <polyline points="32,45 30,45 28,46 27,46 25,47 24,49 22,50 21,52 21,53 20,55 20,57" stroke="#000000" fill="none"/>
 <polyline points="20,57 20,427" stroke="#000000" fill="none"/>
 <polyline points="20,427 20,429 21,431 21,432 22,434 24,435 25,437 27,438 28,438 30,439 32,439" stroke="#000000" fill="none"/>
 <text x="41" y="61" fill="#000000" font-family="Arial" font-size="12">ItemInstQueue</text>
 <polygon points="117,79 63,79 63,105 117,105 117,79" stroke="#C0C0C0" fill="#FFFFFF"/>
 <text x="70" y="95" fill="#000000" font-family="Arial" font-size="12">begin</text>
 <polygon points="124,449 59,449 56,452 56,475 121,475 124,472 124,449" stroke="#C0C0C0" fill="#FFFFFF"/>
 <polyline points="121,452 56,452" stroke="#C0C0C0" fill="none"/>
 <polyline points="121,452 121,475" stroke="#C0C0C0" fill="none"/>
 <polyline points="121,452 124,449" stroke="#C0C0C0" fill="none"/>
 <text x="64" y="465" fill="#000000" font-family="Arial" font-size="12">ItemInst</text>
 <polygon points="114,123 66,123 66,149 114,149 114,123" stroke="#C0C0C0" fill="#FFFFFF"/>
 <text x="73" y="139" fill="#000000" font-family="Arial" font-size="12">push</text>
 <polygon points="111,167 69,167 69,193 111,193 111,167" stroke="#C0C0C0" fill="#FFFFFF"/>
 <text x="77" y="183" fill="#000000" font-family="Arial" font-size="12">end</text>
 <polygon points="133,493 50,493 47,496 47,519 130,519 133,516 133,493" stroke="#C0C0C0" fill="#FFFFFF"/>
 <polyline points="130,496 47,496" stroke="#C0C0C0" fill="none"/>
 <polyline points="130,496 130,519" stroke="#C0C0C0" fill="none"/>
 <polyline points="130,496 133,493" stroke="#C0C0C0" fill="none"/>
 <text x="55" y="509" fill="#000000" font-family="Arial" font-size="12">EvolveInfo</text>
 <polygon points="128,537 55,537 52,540 52,563 125,563 128,560 128,537" stroke="#C0C0C0" fill="#FFFFFF"/>
 <polyline points="125,540 52,540" stroke="#C0C0C0" fill="none"/>
 <polyline points="125,540 125,563" stroke="#C0C0C0" fill="none"/>
 <polyline points="125,540 128,537" stroke="#C0C0C0" fill="none"/>
 <text x="60" y="553" fill="#000000" font-family="Arial" font-size="12">Inventory</text>
 <polygon points="134,211 46,211 46,237 134,237 134,211" stroke="#C0C0C0" fill="#FFFFFF"/>
 <text x="54" y="227" fill="#000000" font-family="Arial" font-size="12">push_front</text>
 <polygon points="137,581 46,581 43,584 43,607 134,607 137,604 137,581" stroke="#C0C0C0" fill="#FFFFFF"/>
 <polyline points="134,584 43,584" stroke="#C0C0C0" fill="none"/>
 <polyline points="134,584 134,607" stroke="#C0C0C0" fill="none"/>
 <polyline points="134,584 137,581" stroke="#C0C0C0" fill="none"/>
 <text x="50" y="597" fill="#000000" font-family="Arial" font-size="12">EvoItemInst</text>
 <polygon points="112,255 68,255 68,281 112,281 112,255" stroke="#C0C0C0" fill="#FFFFFF"/>
 <text x="76" y="271" fill="#000000" font-family="Arial" font-size="12">size</text>
 <polygon points="135,299 45,299 45,325 135,325 135,299" stroke="#C0C0C0" fill="#FFFFFF"/>
 <text x="53" y="315" fill="#000000" font-family="Arial" font-size="12">peek_front</text>
 <polygon points="151,361 29,361 29,387 151,387 151,361" stroke="#C0C0C0" fill="#FFFFFF"/>
 <text x="36" y="377" fill="#000000" font-family="Arial" font-size="12">~ItemInstQueue</text>
 <polygon points="111,405 69,405 69,431 111,431 111,405" stroke="#C0C0C0" fill="#FFFFFF"/>
 <text x="76" y="421" fill="#000000" font-family="Arial" font-size="12">pop</text>
</svg>
