<?xml version="1.0"?>
<svg width="442" height="120" xmlns="http://www.w3.org/2000/svg" version="1.1">
 <polygon points="24,79 418,79 430,67 430,23 418,11 24,11 12,23 12,67 24,79" stroke="#FFFFE0" fill="#FFFFE0"/>
 <polyline points="418,79 420,79 422,78 423,78 425,77 426,75 428,74 429,72 429,71 430,69 430,67" stroke="#FFFFE0" fill="none"/>
 <polyline points="430,23 430,21 429,19 429,18 428,16 426,15 425,13 423,12 422,12 420,11 418,11" stroke="#FFFFE0" fill="none"/>
 <polyline points="24,11 22,11 20,12 19,12 17,13 16,15 14,16 13,18 13,19 12,21 12,23" stroke="#FFFFE0" fill="none"/>
 <polyline points="12,67 12,69 13,71 13,72 14,74 16,75 17,77 19,78 20,78 22,79 24,79" stroke="#FFFFE0" fill="none"/>
 <polyline points="24,79 418,79" stroke="#000000" fill="none"/>
 <polyline points="418,79 420,79 422,78 423,78 425,77 426,75 428,74 429,72 429,71 430,69 430,67" stroke="#000000" fill="none"/>
 <polyline points="430,67 430,23" stroke="#000000" fill="none"/>
 <polyline points="430,23 430,21 429,19 429,18 428,16 426,15 425,13 423,12 422,12 420,11 418,11" stroke="#000000" fill="none"/>
 <polyline points="418,11 24,11" stroke="#000000" fill="none"/>
 <polyline points="24,11 22,11 20,12 19,12 17,13 16,15 14,16 13,18 13,19 12,21 12,23" stroke="#000000" fill="none"/>
 <polyline points="12,23 12,67" stroke="#000000" fill="none"/>
 <polyline points="12,67 12,69 13,71 13,72 14,74 16,75 17,77 19,78 20,78 22,79 24,79" stroke="#000000" fill="none"/>
 <text x="200" y="27" fill="#000000" font-family="Arial" font-size="12">Item.h</text>
 <polygon points="422,45 357,45 354,48 354,71 419,71 422,68 422,45" stroke="#C0C0C0" fill="#FFFFFF"/>
 <polyline points="419,48 354,48" stroke="#C0C0C0" fill="none"/>
 <polyline points="419,48 419,71" stroke="#C0C0C0" fill="none"/>
 <polyline points="419,48 422,45" stroke="#C0C0C0" fill="none"/>
 <text x="362" y="61" fill="#000000" font-family="Arial" font-size="12">ItemInst</text>
 <polygon points="282,45 171,45 168,48 168,71 279,71 282,68 282,45" stroke="#C0C0C0" fill="#FFFF00"/>
 <polyline points="279,48 168,48" stroke="#C0C0C0" fill="none"/>
 <polyline points="279,48 279,71" stroke="#C0C0C0" fill="none"/>
 <polyline points="279,48 282,45" stroke="#C0C0C0" fill="none"/>
 <text x="176" y="61" fill="#000000" font-family="Arial" font-size="12">ItemInstQueue</text>
 <polyline points="282,58 289,58 295,58 302,58 309,58 316,58 322,58 329,58 336,58 342,58 348,58" stroke="#0000CD" fill="none"/>
 <polygon points="349,56 354,58 349,60 349,56" stroke="#0000CD" fill="#0000CD"/>
 <polygon points="405,89 374,89 371,92 371,115 402,115 405,112 405,89" stroke="#C0C0C0" fill="#FFFFFF"/>
 <polyline points="402,92 371,92" stroke="#C0C0C0" fill="none"/>
 <polyline points="402,92 402,115" stroke="#C0C0C0" fill="none"/>
 <polyline points="402,92 405,89" stroke="#C0C0C0" fill="none"/>
 <text x="378" y="105" fill="#000000" font-family="Arial" font-size="12">list</text>
 <polyline points="273,71 282,73 292,76 302,79 312,81 322,84 332,86 341,89 350,91 358,94 365,96" stroke="#0000CD" fill="none"/>
 <polygon points="366,94 370,97 365,98 366,94" stroke="#0000CD" fill="#0000CD"/>
 <polygon points="96,45 23,45 20,48 20,71 93,71 96,68 96,45" stroke="#C0C0C0" fill="#FFFFFF"/>
 <polyline points="93,48 20,48" stroke="#C0C0C0" fill="none"/>
 <polyline points="93,48 93,71" stroke="#C0C0C0" fill="none"/>
 <polyline points="93,48 96,45" stroke="#C0C0C0" fill="none"/>
 <text x="28" y="61" fill="#000000" font-family="Arial" font-size="12">Inventory</text>
 <polyline points="96,58 102,58 109,58 115,58 122,58 129,58 136,58 143,58 150,58 156,58 163,58" stroke="#0000CD" fill="none"/>
 <polygon points="163,56 168,58 163,60 163,56" stroke="#0000CD" fill="#0000CD"/>
</svg>
