<?xml version="1.0"?>
<svg width="298" height="114" xmlns="http://www.w3.org/2000/svg" version="1.1">
 <polyline points="107,57 133,57 143,18 151,18" stroke="#8C2020" fill="none"/>
 <polyline points="107,57 133,57 143,44 151,44" stroke="#8C2020" fill="none"/>
 <polyline points="107,57 133,57 143,70 151,70" stroke="#8C2020" fill="none"/>
 <polyline points="107,57 133,57 143,96 151,96" stroke="#8C2020" fill="none"/>
 <polygon points="7,57 12,46 102,46 107,57 102,68 12,68 7,57" stroke="#20208C" fill="#FFFFFF"/>
 <text x="15" y="59" fill="#8C2020" font-family="Arial" font-size="10">ItemInstQueue</text>
 <ellipse cx="111" cy="57" rx="4" ry="4" stroke="#8C2020" fill="#8C2020"/>
 <polygon points="156,7 203,7 198,29 151,29 156,7" stroke="#20208C" fill="#FFFFFF"/>
 <text x="159" y="20" fill="#000000" font-family="Arial" font-size="10">Item.h</text>
 <ellipse cx="207" cy="18" rx="4" ry="4" stroke="#8C2020" fill="#8C2020"/>
 <polygon points="151,44 156,33 208,33 213,44 208,55 156,55 151,44" stroke="#20208C" fill="#FFFFFF"/>
 <text x="159" y="46" fill="#000000" font-family="Arial" font-size="10">ItemInst</text>
 <ellipse cx="217" cy="44" rx="4" ry="4" stroke="#8C2020" fill="#8C2020"/>
 <polygon points="151,70 156,59 179,59 184,70 179,81 156,81 151,70" stroke="#20208C" fill="#FFFFFF"/>
 <text x="159" y="72" fill="#000000" font-family="Arial" font-size="10">list</text>
 <ellipse cx="188" cy="70" rx="4" ry="4" stroke="#8C2020" fill="#8C2020"/>
 <polygon points="151,96 156,85 276,85 281,96 276,107 156,107 151,96" stroke="#20208C" fill="#FFFFFF"/>
 <text x="159" y="98" fill="#000000" font-family="Arial" font-size="10">_List_const_iterator</text>
 <ellipse cx="285" cy="96" rx="4" ry="4" stroke="#8C2020" fill="#8C2020"/>
</svg>
