<?xml version="1.0"?>
<svg width="270" height="472" xmlns="http://www.w3.org/2000/svg" version="1.1">
 <polygon points="24,79 246,79 258,67 258,23 246,11 24,11 12,23 12,67 24,79" stroke="#FFFFE0" fill="#FFFFE0"/>
 <polyline points="246,79 248,79 250,78 251,78 253,77 254,75 256,74 257,72 257,71 258,69 258,67" stroke="#FFFFE0" fill="none"/>
 <polyline points="258,23 258,21 257,19 257,18 256,16 254,15 253,13 251,12 250,12 248,11 246,11" stroke="#FFFFE0" fill="none"/>
 <polyline points="24,11 22,11 20,12 19,12 17,13 16,15 14,16 13,18 13,19 12,21 12,23" stroke="#FFFFE0" fill="none"/>
 <polyline points="12,67 12,69 13,71 13,72 14,74 16,75 17,77 19,78 20,78 22,79 24,79" stroke="#FFFFE0" fill="none"/>
 <polyline points="24,79 246,79" stroke="#000000" fill="none"/>
 <polyline points="246,79 248,79 250,78 251,78 253,77 254,75 256,74 257,72 257,71 258,69 258,67" stroke="#000000" fill="none"/>
 <polyline points="258,67 258,23" stroke="#000000" fill="none"/>
 <polyline points="258,23 258,21 257,19 257,18 256,16 254,15 253,13 251,12 250,12 248,11 246,11" stroke="#000000" fill="none"/>
 <polyline points="246,11 24,11" stroke="#000000" fill="none"/>
 <polyline points="24,11 22,11 20,12 19,12 17,13 16,15 14,16 13,18 13,19 12,21 12,23" stroke="#000000" fill="none"/>
 <polyline points="12,23 12,67" stroke="#000000" fill="none"/>
 <polyline points="12,67 12,69 13,71 13,72 14,74 16,75 17,77 19,78 20,78 22,79 24,79" stroke="#000000" fill="none"/>
 <text x="114" y="27" fill="#000000" font-family="Arial" font-size="12">Item.h</text>
 <polygon points="259,89 168,89 165,92 165,115 256,115 259,112 259,89" stroke="#C0C0C0" fill="#FFFFFF"/>
 <polyline points="256,92 165,92" stroke="#C0C0C0" fill="none"/>
 <polyline points="256,92 256,115" stroke="#C0C0C0" fill="none"/>
 <polyline points="256,92 259,89" stroke="#C0C0C0" fill="none"/>
 <text x="173" y="105" fill="#000000" font-family="Arial" font-size="12">shareddb.h</text>
 <polygon points="88,45 23,45 20,48 20,71 85,71 88,68 88,45" stroke="#C0C0C0" fill="#FFFF00"/>
 <polyline points="85,48 20,48" stroke="#C0C0C0" fill="none"/>
 <polyline points="85,48 85,71" stroke="#C0C0C0" fill="none"/>
 <polyline points="85,48 88,45" stroke="#C0C0C0" fill="none"/>
 <text x="28" y="61" fill="#000000" font-family="Arial" font-size="12">ItemInst</text>
 <polyline points="88,68 94,70 101,71 108,73 116,75 123,77 131,79 138,82 146,84 153,86 160,88" stroke="#0000CD" fill="none"/>
 <polygon points="161,86 165,89 160,89 161,86" stroke="#0000CD" fill="#0000CD"/>
 <polygon points="264,133 163,133 160,136 160,159 261,159 264,156 264,133" stroke="#C0C0C0" fill="#FFFFFF"/>
 <polyline points="261,136 160,136" stroke="#C0C0C0" fill="none"/>
 <polyline points="261,136 261,159" stroke="#C0C0C0" fill="none"/>
 <polyline points="261,136 264,133" stroke="#C0C0C0" fill="none"/>
 <text x="168" y="149" fill="#000000" font-family="Arial" font-size="12">item_struct.h</text>
 <polyline points="73,71 80,75 87,80 95,86 103,91 112,97 122,102 131,108 141,114 150,119 160,124 161,125 163,125 164,126 166,127 167,128 168,128 170,129 171,130 173,130 174,131" stroke="#0000CD" fill="none"/>
 <polygon points="175,129 179,133 174,132 175,129" stroke="#0000CD" fill="#0000CD"/>
 <polygon points="248,177 179,177 176,180 176,203 245,203 248,200 248,177" stroke="#C0C0C0" fill="#FFFFFF"/>
 <polyline points="245,180 176,180" stroke="#C0C0C0" fill="none"/>
 <polyline points="245,180 245,203" stroke="#C0C0C0" fill="none"/>
 <polyline points="245,180 248,177" stroke="#C0C0C0" fill="none"/>
 <text x="184" y="193" fill="#000000" font-family="Arial" font-size="12">sstream</text>
 <polyline points="64,71 70,79 77,87 84,97 93,107 103,118 113,128 124,139 136,149 148,159 160,168 161,169 162,169 163,170 164,171 165,172 166,172 167,173 169,174 170,174 171,175" stroke="#0000CD" fill="none"/>
 <polygon points="172,173 176,177 170,176 172,173" stroke="#0000CD" fill="#0000CD"/>
 <polygon points="235,221 192,221 189,224 189,247 232,247 235,244 235,221" stroke="#C0C0C0" fill="#FFFFFF"/>
 <polyline points="232,224 189,224" stroke="#C0C0C0" fill="none"/>
 <polyline points="232,224 232,247" stroke="#C0C0C0" fill="none"/>
 <polyline points="232,224 235,221" stroke="#C0C0C0" fill="none"/>
 <text x="196" y="237" fill="#000000" font-family="Arial" font-size="12">map</text>
 <polyline points="60,71 65,81 71,93 78,107 87,122 97,137 107,153 119,169 132,184 145,199 160,212 162,214 164,215 167,217 169,218 171,220 173,221 176,222 178,223 181,224 183,225" stroke="#0000CD" fill="none"/>
 <polygon points="184,224 188,227 183,227 184,224" stroke="#0000CD" fill="#0000CD"/>
 <polygon points="250,45 177,45 174,48 174,71 247,71 250,68 250,45" stroke="#C0C0C0" fill="#FFFFFF"/>
 <polyline points="247,48 174,48" stroke="#C0C0C0" fill="none"/>
 <polyline points="247,48 247,71" stroke="#C0C0C0" fill="none"/>
 <polyline points="247,48 250,45" stroke="#C0C0C0" fill="none"/>
 <text x="182" y="61" fill="#000000" font-family="Arial" font-size="12">Inventory</text>
 <polyline points="88,58 95,58 103,58 111,58 119,58 128,58 136,58 145,58 153,58 161,58 169,58" stroke="#0000CD" fill="none"/>
 <polygon points="169,56 174,58 169,60 169,56" stroke="#0000CD" fill="#0000CD"/>
 <polygon points="237,265 190,265 187,268 187,291 234,291 237,288 237,265" stroke="#C0C0C0" fill="#FFFFFF"/>
 <polyline points="234,268 187,268" stroke="#C0C0C0" fill="none"/>
 <polyline points="234,268 234,291" stroke="#C0C0C0" fill="none"/>
 <polyline points="234,268 237,265" stroke="#C0C0C0" fill="none"/>
 <text x="195" y="281" fill="#000000" font-family="Arial" font-size="12">xtree</text>
 <polyline points="58,71 62,83 67,98 73,116 81,136 90,156 101,178 113,199 127,219 143,239 160,256 162,258 164,259 166,261 168,262 170,264 173,265 175,266 177,267 180,268 182,269" stroke="#0000CD" fill="none"/>
 <polygon points="183,268 187,271 181,271 183,268" stroke="#0000CD" fill="#0000CD"/>
 <polygon points="242,309 185,309 182,312 182,335 239,335 242,332 242,309" stroke="#C0C0C0" fill="#FFFFFF"/>
 <polyline points="239,312 182,312" stroke="#C0C0C0" fill="none"/>
 <polyline points="239,312 239,335" stroke="#C0C0C0" fill="none"/>
 <polyline points="239,312 242,309" stroke="#C0C0C0" fill="none"/>
 <text x="189" y="325" fill="#000000" font-family="Arial" font-size="12">xstring</text>
 <polyline points="56,71 59,85 63,104 69,125 76,149 85,175 96,202 109,228 123,254 141,278 160,300 162,301 163,303 165,304 166,305 168,306 170,307 172,308 173,309 175,310 177,311" stroke="#0000CD" fill="none"/>
 <polygon points="178,310 181,314 176,313 178,310" stroke="#0000CD" fill="#0000CD"/>
 <polygon points="249,353 178,353 175,356 175,379 246,379 249,376 249,353" stroke="#C0C0C0" fill="#FFFFFF"/>
 <polyline points="246,356 175,356" stroke="#C0C0C0" fill="none"/>
 <polyline points="246,356 246,379" stroke="#C0C0C0" fill="none"/>
 <polyline points="246,356 249,353" stroke="#C0C0C0" fill="none"/>
 <text x="182" y="369" fill="#000000" font-family="Arial" font-size="12">Item.cpp</text>
 <polyline points="55,71 57,87 60,108 65,134 71,162 80,193 90,225 103,257 119,288 138,318 160,344 161,345 162,346 163,347 164,348 165,348 166,349 167,350 168,351 169,351 170,352" stroke="#0000CD" fill="none"/>
 <polygon points="171,351 174,355 169,354 171,351" stroke="#0000CD" fill="#0000CD"/>
 <polygon points="229,397 198,397 195,400 195,423 226,423 229,420 229,397" stroke="#C0C0C0" fill="#FFFFFF"/>
 <polyline points="226,400 195,400" stroke="#C0C0C0" fill="none"/>
 <polyline points="226,400 226,423" stroke="#C0C0C0" fill="none"/>
 <polyline points="226,400 229,397" stroke="#C0C0C0" fill="none"/>
 <text x="202" y="413" fill="#000000" font-family="Arial" font-size="12">list</text>
 <polyline points="54,71 55,89 58,113 61,143 67,176 75,212 85,249 98,286 115,322 135,357 160,388 162,390 165,393 168,395 171,397 174,398 177,400 180,402 183,403 186,404 189,405" stroke="#0000CD" fill="none"/>
 <polygon points="190,403 194,407 189,407 190,403" stroke="#0000CD" fill="#0000CD"/>
 <polygon points="248,441 179,441 176,444 176,467 245,467 248,464 248,441" stroke="#C0C0C0" fill="#FFFFFF"/>
 <polyline points="245,444 176,444" stroke="#C0C0C0" fill="none"/>
 <polyline points="245,444 245,467" stroke="#C0C0C0" fill="none"/>
 <polyline points="245,444 248,441" stroke="#C0C0C0" fill="none"/>
 <text x="183" y="457" fill="#000000" font-family="Arial" font-size="12">ostream</text>
 <polyline points="56,71 60,94 66,126 73,164 83,207 93,252 105,297 117,340 131,378 145,410 160,432 161,433 162,434 163,435 164,436 165,437 166,438 167,438 169,439 170,440 171,441" stroke="#0000CD" fill="none"/>
 <polygon points="172,440 175,444 170,443 172,440" stroke="#0000CD" fill="#0000CD"/>
</svg>
