<?xml version="1.0"?>
<svg width="1192" height="2476" xmlns="http://www.w3.org/2000/svg" version="1.1">
 <polygon points="24,2463 1168,2463 1180,2451 1180,23 1168,11 24,11 12,23 12,2451 24,2463" stroke="#FFFFE0" fill="#FFFFE0"/>
 <polyline points="1168,2463 1170,2463 1172,2462 1173,2462 1175,2461 1176,2459 1178,2458 1179,2456 1179,2455 1180,2453 1180,2451" stroke="#FFFFE0" fill="none"/>
 <polyline points="1180,23 1180,21 1179,19 1179,18 1178,16 1176,15 1175,13 1173,12 1172,12 1170,11 1168,11" stroke="#FFFFE0" fill="none"/>
 <polyline points="24,11 22,11 20,12 19,12 17,13 16,15 14,16 13,18 13,19 12,21 12,23" stroke="#FFFFE0" fill="none"/>
 <polyline points="12,2451 12,2453 13,2455 13,2456 14,2458 16,2459 17,2461 19,2462 20,2462 22,2463 24,2463" stroke="#FFFFE0" fill="none"/>
 <polyline points="24,2463 1168,2463" stroke="#000000" fill="none"/>
 <polyline points="1168,2463 1170,2463 1172,2462 1173,2462 1175,2461 1176,2459 1178,2458 1179,2456 1179,2455 1180,2453 1180,2451" stroke="#000000" fill="none"/>
 <polyline points="1180,2451 1180,23" stroke="#000000" fill="none"/>
 <polyline points="1180,23 1180,21 1179,19 1179,18 1178,16 1176,15 1175,13 1173,12 1172,12 1170,11 1168,11" stroke="#000000" fill="none"/>
 <polyline points="1168,11 24,11" stroke="#000000" fill="none"/>
 <polyline points="24,11 22,11 20,12 19,12 17,13 16,15 14,16 13,18 13,19 12,21 12,23" stroke="#000000" fill="none"/>
 <polyline points="12,23 12,2451" stroke="#000000" fill="none"/>
 <polyline points="12,2451 12,2453 13,2455 13,2456 14,2458 16,2459 17,2461 19,2462 20,2462 22,2463 24,2463" stroke="#000000" fill="none"/>
 <text x="575" y="27" fill="#000000" font-family="Arial" font-size="12">Item.h</text>
 <polygon points="32,2287 1160,2287 1172,2275 1172,57 1160,45 32,45 20,57 20,2275 32,2287" stroke="#F0FFF0" fill="#F0FFF0"/>
 <polyline points="1160,2287 1162,2287 1164,2286 1165,2286 1167,2285 1168,2283 1170,2282 1171,2280 1171,2279 1172,2277 1172,2275" stroke="#F0FFF0" fill="none"/>
 <polyline points="1172,57 1172,55 1171,53 1171,52 1170,50 1168,49 1167,47 1165,46 1164,46 1162,45 1160,45" stroke="#F0FFF0" fill="none"/>
 <polyline points="32,45 30,45 28,46 27,46 25,47 24,49 22,50 21,52 21,53 20,55 20,57" stroke="#F0FFF0" fill="none"/>
 <polyline points="20,2275 20,2277 21,2279 21,2280 22,2282 24,2283 25,2285 27,2286 28,2286 30,2287 32,2287" stroke="#F0FFF0" fill="none"/>
 <polyline points="32,2287 1160,2287" stroke="#000000" fill="none"/>
 <polyline points="1160,2287 1162,2287 1164,2286 1165,2286 1167,2285 1168,2283 1170,2282 1171,2280 1171,2279 1172,2277 1172,2275" stroke="#000000" fill="none"/>
 <polyline points="1172,2275 1172,57" stroke="#000000" fill="none"/>
 <polyline points="1172,57 1172,55 1171,53 1171,52 1170,50 1168,49 1167,47 1165,46 1164,46 1162,45 1160,45" stroke="#000000" fill="none"/>
 <polyline points="1160,45 32,45" stroke="#000000" fill="none"/>
 <polyline points="32,45 30,45 28,46 27,46 25,47 24,49 22,50 21,52 21,53 20,55 20,57" stroke="#000000" fill="none"/>
 <polyline points="20,57 20,2275" stroke="#000000" fill="none"/>
 <polyline points="20,2275 20,2277 21,2279 21,2280 22,2282 24,2283 25,2285 27,2286 28,2286 30,2287 32,2287" stroke="#000000" fill="none"/>
 <text x="570" y="61" fill="#000000" font-family="Arial" font-size="12">ItemInst</text>
 <polygon points="1164,243 1110,243 1110,269 1164,269 1164,243" stroke="#C0C0C0" fill="#FFFFFF"/>
 <text x="1118" y="259" fill="#000000" font-family="Arial" font-size="12">Clear</text>
 <polygon points="1037,243 961,243 961,269 1037,269 1037,243" stroke="#C0C0C0" fill="#FFFFFF"/>
 <text x="968" y="259" fill="#000000" font-family="Arial" font-size="12">~ItemInst</text>
 <polyline points="1044,256 1050,256 1056,256 1062,256 1068,256 1074,256 1080,256 1086,256 1092,256 1098,256 1103,256" stroke="#CD0000" fill="none"/>
 <polygon points="1044,256 1041,254 1038,256 1041,258 1044,256" stroke="#CD0000" fill="#CD0000"/>
 <polygon points="1104,256 1107,258 1110,256 1107,254 1104,256" stroke="#CD0000" fill="#CD0000"/>
 <polygon points="855,275 745,275 745,301 855,301 855,275" stroke="#C0C0C0" fill="#FFFFFF"/>
 <text x="752" y="291" fill="#000000" font-family="Arial" font-size="12">ClearByFlags</text>
 <polyline points="856,279 866,277 875,276 886,274 896,273 906,271 917,269 927,268 937,266 946,265 955,263" stroke="#0000CD" fill="none"/>
 <polygon points="955,261 960,262 956,265 955,261" stroke="#0000CD" fill="#0000CD"/>
 <polygon points="1034,303 964,303 964,329 1034,329 1034,303" stroke="#C0C0C0" fill="#FFFFFF"/>
 <text x="972" y="319" fill="#000000" font-family="Arial" font-size="12">GetItem</text>
 <polyline points="856,296 866,297 877,299 887,300 898,302 909,303 919,304 930,306 940,307 950,309 959,310" stroke="#0000CD" fill="none"/>
 <polygon points="959,309 964,311 959,312 959,309" stroke="#0000CD" fill="#0000CD"/>
 <polygon points="845,211 755,211 755,237 845,237 845,211" stroke="#C0C0C0" fill="#FFFFFF"/>
 <text x="762" y="227" fill="#000000" font-family="Arial" font-size="12">DeleteItem</text>
 <polyline points="846,231 856,233 867,235 878,237 889,238 901,240 912,242 924,244 935,246 945,247 955,249" stroke="#0000CD" fill="none"/>
 <polygon points="956,247 960,250 955,251 956,247" stroke="#0000CD" fill="#0000CD"/>
 <polygon points="1036,183 962,183 962,209 1036,209 1036,183" stroke="#C0C0C0" fill="#FFFFFF"/>
 <text x="970" y="199" fill="#000000" font-family="Arial" font-size="12">PopItem</text>
 <polyline points="846,218 856,216 867,215 878,213 890,212 902,210 913,208 925,207 936,205 947,204 957,202" stroke="#0000CD" fill="none"/>
 <polygon points="957,200 962,201 957,204 957,200" stroke="#0000CD" fill="#0000CD"/>
 <polygon points="163,79 63,79 63,105 163,105 163,79" stroke="#C0C0C0" fill="#FFFFFF"/>
 <text x="70" y="95" fill="#000000" font-family="Arial" font-size="12">PutAugment</text>
 <polyline points="164,104 167,105 171,106 174,107 178,108 181,109 184,110 188,111 191,112 195,113 198,114 235,128 267,143 295,157 319,172 343,186 367,200 392,213 421,225 453,236 492,246 523,251 563,255 610,258 662,259 716,260 771,260 824,260 874,259 918,258 955,257" stroke="#0000CD" fill="none"/>
 <polygon points="955,256 960,257 955,259 955,256" stroke="#0000CD" fill="#0000CD"/>
 <polygon points="395,90 295,90 295,116 395,116 395,90" stroke="#C0C0C0" fill="#FFFFFF"/>
 <text x="302" y="106" fill="#000000" font-family="Arial" font-size="12">PutAugment</text>
 <polyline points="164,94 175,95 188,95 200,96 213,97 226,97 239,98 252,99 265,99 277,100 289,100" stroke="#0000CD" fill="none"/>
 <polygon points="290,99 294,101 289,102 290,99" stroke="#0000CD" fill="#0000CD"/>
 <polygon points="420,287 270,287 270,313 420,313 420,287" stroke="#C0C0C0" fill="#FFFFFF"/>
 <text x="278" y="303" fill="#000000" font-family="Arial" font-size="12">DeleteCustomData</text>
 <polygon points="177,211 49,211 49,237 177,237 177,211" stroke="#C0C0C0" fill="#FFFFFF"/>
 <text x="57" y="227" fill="#000000" font-family="Arial" font-size="12">SetCustomData</text>
 <polyline points="169,237 172,238 175,239 178,240 181,241 184,242 187,242 190,243 192,244 195,245 198,246 207,249 215,253 222,256 228,259 234,262 240,265 246,268 253,271 261,275 270,278 272,279 274,280 277,280 279,281 281,282 283,283 285,283 288,284 290,284 292,285" stroke="#0000CD" fill="none"/>
 <polygon points="293,284 297,287 292,287 293,284" stroke="#0000CD" fill="#0000CD"/>
 <polygon points="1033,123 965,123 965,149 1033,149 1033,123" stroke="#C0C0C0" fill="#FFFFFF"/>
 <text x="973" y="139" fill="#000000" font-family="Arial" font-size="12">ItemInst</text>
 <polygon points="828,123 772,123 772,149 828,149 828,123" stroke="#C0C0C0" fill="#FFFFFF"/>
 <text x="779" y="139" fill="#000000" font-family="Arial" font-size="12">Clone</text>
 <polyline points="835,136 846,136 857,136 870,136 883,136 896,136 909,136 922,136 935,136 947,136 959,136" stroke="#CD0000" fill="none"/>
 <polygon points="835,136 832,134 829,136 832,138 835,136" stroke="#CD0000" fill="#CD0000"/>
 <polygon points="959,136 962,138 965,136 962,134 959,136" stroke="#CD0000" fill="#CD0000"/>
 <polygon points="600,112 532,112 532,138 600,138 600,112" stroke="#C0C0C0" fill="#FFFFFF"/>
 <text x="540" y="128" fill="#000000" font-family="Arial" font-size="12">PutItem</text>
 <polyline points="587,138 596,143 606,149 617,156 630,163 642,170 656,177 670,183 684,190 698,196 712,202 716,203 719,205 723,206 727,207 731,208 734,209 738,211 742,212 745,213 749,214" stroke="#0000CD" fill="none"/>
 <polygon points="750,212 754,215 749,215 750,212" stroke="#0000CD" fill="#0000CD"/>
 <polyline points="600,127 614,128 630,128 647,129 665,130 683,131 701,131 719,132 736,133 752,133 766,134" stroke="#0000CD" fill="none"/>
 <polygon points="767,133 771,135 766,136 767,133" stroke="#0000CD" fill="#0000CD"/>
 <polygon points="838,79 762,79 762,105 838,105 838,79" stroke="#C0C0C0" fill="#FFFFFF"/>
 <text x="769" y="95" fill="#000000" font-family="Arial" font-size="12">_PutItem</text>
 <polyline points="600,120 613,118 628,116 643,114 660,112 677,109 693,107 710,105 726,102 742,100 756,98" stroke="#0000CD" fill="none"/>
 <polygon points="756,96 761,97 757,100 756,96" stroke="#0000CD" fill="#0000CD"/>
 <polygon points="177,255 49,255 49,281 177,281 177,255" stroke="#C0C0C0" fill="#FFFFFF"/>
 <text x="57" y="271" fill="#000000" font-family="Arial" font-size="12">SetCustomData</text>
 <polyline points="177,277 185,278 194,279 202,281 211,282 220,283 229,284 238,285 247,287 255,288 264,289" stroke="#0000CD" fill="none"/>
 <polygon points="265,287 270,290 264,291 265,287" stroke="#0000CD" fill="#0000CD"/>
 <polygon points="842,319 758,319 758,345 842,345 842,319" stroke="#C0C0C0" fill="#FFFFFF"/>
 <text x="765" y="335" fill="#000000" font-family="Arial" font-size="12">GetItemID</text>
 <polyline points="843,329 854,328 865,327 877,326 889,325 901,324 913,323 925,322 937,321 948,320 958,319" stroke="#0000CD" fill="none"/>
 <polygon points="959,317 964,319 959,321 959,317" stroke="#0000CD" fill="#0000CD"/>
 <polygon points="1034,451 964,451 964,477 1034,477 1034,451" stroke="#C0C0C0" fill="#FFFFFF"/>
 <text x="972" y="467" fill="#000000" font-family="Arial" font-size="12">GetItem</text>
 <polyline points="843,338 848,339 852,340 857,341 861,343 866,344 870,346 875,348 879,350 884,352 888,354 900,362 913,370 924,380 936,390 946,400 956,410 965,420 973,430 981,439 987,447" stroke="#0000CD" fill="none"/>
 <polygon points="988,446 990,451 985,448 988,446" stroke="#0000CD" fill="#0000CD"/>
 <polygon points="639,297 493,297 493,323 639,323 639,297" stroke="#C0C0C0" fill="#FFFFFF"/>
 <text x="500" y="313" fill="#000000" font-family="Arial" font-size="12">GetAugmentItemID</text>
 <polyline points="640,317 651,318 662,319 674,320 686,321 698,322 709,323 721,324 732,326 742,327 752,328" stroke="#0000CD" fill="none"/>
 <polygon points="752,326 757,328 752,329 752,326" stroke="#0000CD" fill="#0000CD"/>
 <polygon points="398,243 292,243 292,269 398,269 398,243" stroke="#C0C0C0" fill="#FFFFFF"/>
 <text x="299" y="259" fill="#000000" font-family="Arial" font-size="12">IsAugmented</text>
 <polyline points="398,269 408,271 419,274 430,277 441,279 453,282 464,285 475,288 487,291 498,293 508,296" stroke="#0000CD" fill="none"/>
 <polygon points="508,294 512,297 507,297 508,294" stroke="#0000CD" fill="#0000CD"/>
 <polyline points="396,108 408,109 421,111 434,112 448,113 462,115 476,116 489,117 502,118 515,120 526,121" stroke="#0000CD" fill="none"/>
 <polygon points="527,119 532,122 527,123 527,119" stroke="#0000CD" fill="#0000CD"/>
 <polygon points="628,211 504,211 504,237 628,237 628,211" stroke="#C0C0C0" fill="#FFFFFF"/>
 <text x="512" y="227" fill="#000000" font-family="Arial" font-size="12">DeleteAugment</text>
 <polyline points="628,224 640,224 652,224 664,224 677,224 690,224 702,224 715,224 727,224 738,224 749,224" stroke="#0000CD" fill="none"/>
 <polygon points="749,222 754,224 749,226 749,222" stroke="#0000CD" fill="#0000CD"/>
 <polygon points="871,451 729,451 729,477 871,477 871,451" stroke="#C0C0C0" fill="#FFFFFF"/>
 <text x="736" y="467" fill="#000000" font-family="Arial" font-size="12">GetTotalItemCount</text>
 <polyline points="872,464 881,464 890,464 899,464 908,464 917,464 926,464 935,464 943,464 951,464 959,464" stroke="#0000CD" fill="none"/>
 <polygon points="959,462 964,464 959,466 959,462" stroke="#0000CD" fill="#0000CD"/>
 <polygon points="884,495 716,495 716,521 884,521 884,495" stroke="#C0C0C0" fill="#FFFFFF"/>
 <text x="723" y="511" fill="#000000" font-family="Arial" font-size="12">AvailableAugmentSlot</text>
 <polyline points="859,495 869,493 879,491 889,488 900,486 910,484 920,481 931,479 941,477 950,475 959,473" stroke="#0000CD" fill="none"/>
 <polygon points="959,471 964,472 959,475 959,471" stroke="#0000CD" fill="#0000CD"/>
 <polygon points="888,539 712,539 712,565 888,565 888,539" stroke="#C0C0C0" fill="#FFFFFF"/>
 <text x="720" y="555" fill="#000000" font-family="Arial" font-size="12">IsNoneEmptyContainer</text>
 <polyline points="862,539 865,538 867,537 870,536 873,535 875,535 878,534 881,533 883,532 886,531 888,530 898,526 907,521 917,516 927,511 936,506 945,500 954,495 962,490 969,485 976,480" stroke="#0000CD" fill="none"/>
 <polygon points="976,479 981,477 978,481 976,479" stroke="#0000CD" fill="#0000CD"/>
 <polygon points="856,583 744,583 744,609 856,609 856,583" stroke="#C0C0C0" fill="#FFFFFF"/>
 <text x="752" y="599" fill="#000000" font-family="Arial" font-size="12">FirstOpenSlot</text>
 <polyline points="856,587 859,586 863,585 866,584 869,583 872,581 876,580 879,578 882,577 885,575 888,574 900,566 913,558 924,548 936,538 946,528 956,518 965,508 973,498 981,489 987,481" stroke="#0000CD" fill="none"/>
 <polygon points="985,480 990,477 988,482 985,480" stroke="#0000CD" fill="#0000CD"/>
 <polygon points="851,363 749,363 749,389 851,389 851,363" stroke="#C0C0C0" fill="#FFFFFF"/>
 <text x="756" y="379" fill="#000000" font-family="Arial" font-size="12">GetAugment</text>
 <polyline points="852,386 856,387 859,388 863,389 866,390 870,391 874,392 877,394 881,395 884,397 888,398 898,402 907,407 917,412 927,417 936,422 945,428 954,433 962,438 969,443 976,448" stroke="#0000CD" fill="none"/>
 <polygon points="978,447 981,451 976,449 978,447" stroke="#0000CD" fill="#0000CD"/>
 <polygon points="841,407 759,407 759,433 841,433 841,407" stroke="#C0C0C0" fill="#FFFFFF"/>
 <text x="766" y="423" fill="#000000" font-family="Arial" font-size="12">operator[]</text>
 <polyline points="842,429 853,431 864,434 876,437 888,440 901,442 913,445 925,448 937,450 948,453 959,455" stroke="#0000CD" fill="none"/>
 <polygon points="959,453 964,456 959,457 959,453" stroke="#0000CD" fill="#0000CD"/>
 <polygon points="868,167 732,167 732,193 868,193 868,167" stroke="#C0C0C0" fill="#FFFFFF"/>
 <text x="740" y="183" fill="#000000" font-family="Arial" font-size="12">RemoveAugment</text>
 <polyline points="868,185 877,186 886,187 896,188 905,189 914,189 923,190 932,191 941,192 949,192 957,193" stroke="#0000CD" fill="none"/>
 <polygon points="957,191 962,193 957,194 957,191" stroke="#0000CD" fill="#0000CD"/>
 <polygon points="177,123 49,123 49,149 177,149 177,123" stroke="#C0C0C0" fill="#FFFFFF"/>
 <text x="57" y="139" fill="#000000" font-family="Arial" font-size="12">SetCustomData</text>
 <polyline points="177,147 179,148 182,149 184,150 186,151 188,152 190,153 192,154 194,155 196,157 198,158 211,169 220,181 226,193 231,205 234,218 238,230 242,242 248,254 257,266 270,278 271,279 272,279 273,280 274,281 275,281 276,282 277,283 278,283 279,284 280,284" stroke="#0000CD" fill="none"/>
 <polygon points="281,283 285,287 280,286 281,283" stroke="#0000CD" fill="#0000CD"/>
 <polygon points="177,167 49,167 49,193 177,193 177,167" stroke="#C0C0C0" fill="#FFFFFF"/>
 <text x="57" y="183" fill="#000000" font-family="Arial" font-size="12">SetCustomData</text>
 <polyline points="177,192 179,193 181,194 183,195 186,196 188,197 190,198 192,199 194,200 196,201 198,202 209,209 217,217 224,224 229,232 234,240 239,248 244,256 251,263 259,271 270,278 271,279 273,280 274,280 275,281 277,282 278,283 280,283 281,284 283,284 284,285" stroke="#0000CD" fill="none"/>
 <polygon points="284,283 288,287 283,287 284,283" stroke="#0000CD" fill="#0000CD"/>
 <polygon points="165,299 61,299 61,325 165,325 165,299" stroke="#C0C0C0" fill="#FFFFFF"/>
 <text x="68" y="315" fill="#000000" font-family="Arial" font-size="12">IsInstNoDrop</text>
 <polygon points="147,343 79,343 79,369 147,369 147,343" stroke="#C0C0C0" fill="#FFFFFF"/>
 <text x="87" y="359" fill="#000000" font-family="Arial" font-size="12">PutItem</text>
 <polygon points="161,387 65,387 65,413 161,413 161,387" stroke="#C0C0C0" fill="#FFFFFF"/>
 <text x="72" y="403" fill="#000000" font-family="Arial" font-size="12">IsStackable</text>
 <polygon points="151,431 75,431 75,457 151,457 151,431" stroke="#C0C0C0" fill="#FFFFFF"/>
 <text x="82" y="447" fill="#000000" font-family="Arial" font-size="12">Serialize</text>
 <polygon points="186,475 40,475 40,501 186,501 186,475" stroke="#C0C0C0" fill="#FFFFFF"/>
 <text x="48" y="491" fill="#000000" font-family="Arial" font-size="12">GetMerchantCount</text>
 <polygon points="143,519 83,519 83,545 143,545 143,519" stroke="#C0C0C0" fill="#FFFFFF"/>
 <text x="91" y="535" fill="#000000" font-family="Arial" font-size="12">IsType</text>
 <polygon points="179,563 47,563 47,589 179,589 179,563" stroke="#C0C0C0" fill="#FFFFFF"/>
 <text x="55" y="579" fill="#000000" font-family="Arial" font-size="12">GetMerchantSlot</text>
 <polygon points="163,607 63,607 63,633 163,633 163,607" stroke="#C0C0C0" fill="#FFFFFF"/>
 <text x="71" y="623" fill="#000000" font-family="Arial" font-size="12">SetCharges</text>
 <polygon points="152,651 74,651 74,677 152,677 152,651" stroke="#C0C0C0" fill="#FFFFFF"/>
 <text x="82" y="667" fill="#000000" font-family="Arial" font-size="12">GetPrice</text>
 <polygon points="185,695 41,695 41,721 185,721 185,695" stroke="#C0C0C0" fill="#FFFFFF"/>
 <text x="48" y="711" fill="#000000" font-family="Arial" font-size="12">SetMerchantCount</text>
 <polygon points="181,739 45,739 45,765 181,765 181,739" stroke="#C0C0C0" fill="#FFFFFF"/>
 <text x="52" y="755" fill="#000000" font-family="Arial" font-size="12">GetSerialNumber</text>
 <polygon points="178,783 48,783 48,809 178,809 178,783" stroke="#C0C0C0" fill="#FFFFFF"/>
 <text x="55" y="799" fill="#000000" font-family="Arial" font-size="12">SetMerchantSlot</text>
 <polygon points="151,827 75,827 75,853 151,853 151,827" stroke="#C0C0C0" fill="#FFFFFF"/>
 <text x="82" y="843" fill="#000000" font-family="Arial" font-size="12">SetPrice</text>
 <polygon points="152,871 74,871 74,897 152,897 152,871" stroke="#C0C0C0" fill="#FFFFFF"/>
 <text x="82" y="887" fill="#000000" font-family="Arial" font-size="12">SetColor</text>
 <polygon points="185,915 41,915 41,941 185,941 185,915" stroke="#C0C0C0" fill="#FFFFFF"/>
 <text x="48" y="931" fill="#000000" font-family="Arial" font-size="12">AvailableWearSlot</text>
 <polygon points="173,959 53,959 53,985 173,985 173,959" stroke="#C0C0C0" fill="#FFFFFF"/>
 <text x="61" y="975" fill="#000000" font-family="Arial" font-size="12">operator _Bool</text>
 <polygon points="172,1003 54,1003 54,1029 172,1029 172,1003" stroke="#C0C0C0" fill="#FFFFFF"/>
 <text x="62" y="1019" fill="#000000" font-family="Arial" font-size="12">SetCurrentSlot</text>
 <polygon points="157,1047 69,1047 69,1073 157,1073 157,1047" stroke="#C0C0C0" fill="#FFFFFF"/>
 <text x="76" y="1063" fill="#000000" font-family="Arial" font-size="12">operator!=</text>
 <polygon points="159,1091 67,1091 67,1117 159,1117 159,1091" stroke="#C0C0C0" fill="#FFFFFF"/>
 <text x="74" y="1107" fill="#000000" font-family="Arial" font-size="12">operator==</text>
 <polygon points="156,2297 73,2297 70,2300 70,2323 153,2323 156,2320 156,2297" stroke="#C0C0C0" fill="#FFFFFF"/>
 <polyline points="153,2300 70,2300" stroke="#C0C0C0" fill="none"/>
 <polyline points="153,2300 153,2323" stroke="#C0C0C0" fill="none"/>
 <polyline points="153,2300 156,2297" stroke="#C0C0C0" fill="none"/>
 <text x="78" y="2313" fill="#000000" font-family="Arial" font-size="12">EvolveInfo</text>
 <polygon points="181,1135 45,1135 45,1161 181,1161 181,1135" stroke="#C0C0C0" fill="#FFFFFF"/>
 <text x="53" y="1151" fill="#000000" font-family="Arial" font-size="12">GetAugmentType</text>
 <polygon points="152,1179 74,1179 74,1205 152,1205 152,1179" stroke="#C0C0C0" fill="#FFFFFF"/>
 <text x="81" y="1195" fill="#000000" font-family="Arial" font-size="12">GetColor</text>
 <polygon points="164,1223 62,1223 62,1249 164,1249 164,1223" stroke="#C0C0C0" fill="#FFFFFF"/>
 <text x="69" y="1239" fill="#000000" font-family="Arial" font-size="12">GetContents</text>
 <polygon points="172,1267 54,1267 54,1293 172,1293 172,1267" stroke="#C0C0C0" fill="#FFFFFF"/>
 <text x="62" y="1283" fill="#000000" font-family="Arial" font-size="12">SetInstNoDrop</text>
 <polygon points="151,2341 78,2341 75,2344 75,2367 148,2367 151,2364 151,2341" stroke="#C0C0C0" fill="#FFFFFF"/>
 <polyline points="148,2344 75,2344" stroke="#C0C0C0" fill="none"/>
 <polyline points="148,2344 148,2367" stroke="#C0C0C0" fill="none"/>
 <polyline points="148,2344 151,2341" stroke="#C0C0C0" fill="none"/>
 <text x="83" y="2357" fill="#000000" font-family="Arial" font-size="12">Inventory</text>
 <polygon points="170,2385 59,2385 56,2388 56,2411 167,2411 170,2408 170,2385" stroke="#C0C0C0" fill="#FFFFFF"/>
 <polyline points="167,2388 56,2388" stroke="#C0C0C0" fill="none"/>
 <polyline points="167,2388 167,2411" stroke="#C0C0C0" fill="none"/>
 <polyline points="167,2388 170,2385" stroke="#C0C0C0" fill="none"/>
 <text x="64" y="2401" fill="#000000" font-family="Arial" font-size="12">ItemInstQueue</text>
 <polygon points="172,1311 54,1311 54,1337 172,1337 172,1311" stroke="#C0C0C0" fill="#FFFFFF"/>
 <text x="61" y="1327" fill="#000000" font-family="Arial" font-size="12">GetCurrentSlot</text>
 <polygon points="160,2429 69,2429 66,2432 66,2455 157,2455 160,2452 160,2429" stroke="#C0C0C0" fill="#FFFFFF"/>
 <polyline points="157,2432 66,2432" stroke="#C0C0C0" fill="none"/>
 <polyline points="157,2432 157,2455" stroke="#C0C0C0" fill="none"/>
 <polyline points="157,2432 160,2429" stroke="#C0C0C0" fill="none"/>
 <text x="73" y="2445" fill="#000000" font-family="Arial" font-size="12">EvoItemInst</text>
 <polygon points="177,1355 49,1355 49,1381 177,1381 177,1355" stroke="#C0C0C0" fill="#FFFFFF"/>
 <text x="56" y="1371" fill="#000000" font-family="Arial" font-size="12">GetCustomData</text>
 <polygon points="147,1399 79,1399 79,1425 147,1425 147,1399" stroke="#C0C0C0" fill="#FFFFFF"/>
 <text x="86" y="1415" fill="#000000" font-family="Arial" font-size="12">SetItem</text>
 <polygon points="198,1443 28,1443 28,1469 198,1469 198,1443" stroke="#C0C0C0" fill="#FFFFFF"/>
 <text x="36" y="1459" fill="#000000" font-family="Arial" font-size="12">GetCustomDataString</text>
 <polygon points="152,1487 74,1487 74,1513 152,1513 152,1487" stroke="#C0C0C0" fill="#FFFFFF"/>
 <text x="81" y="1503" fill="#000000" font-family="Arial" font-size="12">IsScaling</text>
 <polygon points="147,1531 79,1531 79,1557 147,1557 147,1531" stroke="#C0C0C0" fill="#FFFFFF"/>
 <text x="87" y="1547" fill="#000000" font-family="Arial" font-size="12">ItemInst</text>
 <polygon points="176,1575 50,1575 50,1601 176,1601 176,1575" stroke="#C0C0C0" fill="#FFFFFF"/>
 <text x="58" y="1591" fill="#000000" font-family="Arial" font-size="12">GetItemScriptID</text>
 <polygon points="149,1619 77,1619 77,1645 149,1645 149,1619" stroke="#C0C0C0" fill="#FFFFFF"/>
 <text x="84" y="1635" fill="#000000" font-family="Arial" font-size="12">IsAmmo</text>
 <polygon points="172,1663 54,1663 54,1689 172,1689 172,1663" stroke="#C0C0C0" fill="#FFFFFF"/>
 <text x="61" y="1679" fill="#000000" font-family="Arial" font-size="12">IsAugmentable</text>
 <polygon points="181,1707 45,1707 45,1733 181,1733 181,1707" stroke="#C0C0C0" fill="#FFFFFF"/>
 <text x="53" y="1723" fill="#000000" font-family="Arial" font-size="12">SetSerialNumber</text>
 <polygon points="162,1751 64,1751 64,1777 162,1777 162,1751" stroke="#C0C0C0" fill="#FFFFFF"/>
 <text x="72" y="1767" fill="#000000" font-family="Arial" font-size="12">IsEquipable</text>
 <polygon points="155,1813 71,1813 71,1839 155,1839 155,1813" stroke="#C0C0C0" fill="#FFFFFF"/>
 <text x="78" y="1829" fill="#000000" font-family="Arial" font-size="12">IsEvolving</text>
 <polygon points="168,1857 58,1857 58,1883 168,1883 168,1857" stroke="#C0C0C0" fill="#FFFFFF"/>
 <text x="66" y="1873" fill="#000000" font-family="Arial" font-size="12">IsExpendable</text>
 <polygon points="167,1901 59,1901 59,1927 167,1927 167,1901" stroke="#C0C0C0" fill="#FFFFFF"/>
 <text x="66" y="1917" fill="#000000" font-family="Arial" font-size="12">IsSlotAllowed</text>
 <polygon points="163,1945 63,1945 63,1971 163,1971 163,1945" stroke="#C0C0C0" fill="#FFFFFF"/>
 <text x="70" y="1961" fill="#000000" font-family="Arial" font-size="12">GetCharges</text>
 <polygon points="156,1989 70,1989 70,2015 156,2015 156,1989" stroke="#C0C0C0" fill="#FFFFFF"/>
 <text x="78" y="2005" fill="#000000" font-family="Arial" font-size="12">IsWeapon</text>
 <polygon points="141,2033 85,2033 85,2059 141,2059 141,2033" stroke="#C0C0C0" fill="#FFFFFF"/>
 <text x="93" y="2049" fill="#000000" font-family="Arial" font-size="12">GetID</text>
 <polygon points="145,2077 81,2077 81,2103 145,2103 145,2077" stroke="#C0C0C0" fill="#FFFFFF"/>
 <text x="89" y="2093" fill="#000000" font-family="Arial" font-size="12">_begin</text>
 <polygon points="147,2121 79,2121 79,2147 147,2147 147,2121" stroke="#C0C0C0" fill="#FFFFFF"/>
 <text x="87" y="2137" fill="#000000" font-family="Arial" font-size="12">ItemInst</text>
 <polygon points="138,2165 88,2165 88,2191 138,2191 138,2165" stroke="#C0C0C0" fill="#FFFFFF"/>
 <text x="95" y="2181" fill="#000000" font-family="Arial" font-size="12">_end</text>
 <polygon points="147,2209 79,2209 79,2235 147,2235 147,2209" stroke="#C0C0C0" fill="#FFFFFF"/>
 <text x="87" y="2225" fill="#000000" font-family="Arial" font-size="12">ItemInst</text>
 <polygon points="162,2253 64,2253 64,2279 162,2279 162,2253" stroke="#C0C0C0" fill="#FFFFFF"/>
 <text x="72" y="2269" fill="#000000" font-family="Arial" font-size="12">IsEquipable</text>
</svg>
