<?xml version="1.0"?>
<svg width="350" height="1660" xmlns="http://www.w3.org/2000/svg" version="1.1">
 <polygon points="44,167 326,167 338,155 338,23 326,11 44,11 32,23 32,155 44,167" stroke="#FFFFE0" fill="#FFFFE0"/>
 <polyline points="326,167 328,167 330,166 331,166 333,165 334,163 336,162 337,160 337,159 338,157 338,155" stroke="#FFFFE0" fill="none"/>
 <polyline points="338,23 338,21 337,19 337,18 336,16 334,15 333,13 331,12 330,12 328,11 326,11" stroke="#FFFFE0" fill="none"/>
 <polyline points="44,11 42,11 40,12 39,12 37,13 36,15 34,16 33,18 33,19 32,21 32,23" stroke="#FFFFE0" fill="none"/>
 <polyline points="32,155 32,157 33,159 33,160 34,162 36,163 37,165 39,166 40,166 42,167 44,167" stroke="#FFFFE0" fill="none"/>
 <polyline points="44,167 326,167" stroke="#000000" fill="none"/>
 <polyline points="326,167 328,167 330,166 331,166 333,165 334,163 336,162 337,160 337,159 338,157 338,155" stroke="#000000" fill="none"/>
 <polyline points="338,155 338,23" stroke="#000000" fill="none"/>
 <polyline points="338,23 338,21 337,19 337,18 336,16 334,15 333,13 331,12 330,12 328,11 326,11" stroke="#000000" fill="none"/>
 <polyline points="326,11 44,11" stroke="#000000" fill="none"/>
 <polyline points="44,11 42,11 40,12 39,12 37,13 36,15 34,16 33,18 33,19 32,21 32,23" stroke="#000000" fill="none"/>
 <polyline points="32,23 32,155" stroke="#000000" fill="none"/>
 <polyline points="32,155 32,157 33,159 33,160 34,162 36,163 37,165 39,166 40,166 42,167 44,167" stroke="#000000" fill="none"/>
 <text x="164" y="27" fill="#000000" font-family="Arial" font-size="12">Item.h</text>
 <polygon points="330,133 265,133 262,136 262,159 327,159 330,156 330,133" stroke="#C0C0C0" fill="#FFFF00"/>
 <polyline points="327,136 262,136" stroke="#C0C0C0" fill="none"/>
 <polyline points="327,136 327,159" stroke="#C0C0C0" fill="none"/>
 <polyline points="327,136 330,133" stroke="#C0C0C0" fill="none"/>
 <text x="270" y="149" fill="#000000" font-family="Arial" font-size="12">ItemInst</text>
 <polygon points="143,177 54,177 51,180 51,203 140,203 143,200 143,177" stroke="#C0C0C0" fill="#FFFFFF"/>
 <polyline points="140,180 51,180" stroke="#C0C0C0" fill="none"/>
 <polyline points="140,180 140,203" stroke="#C0C0C0" fill="none"/>
 <polyline points="140,180 143,177" stroke="#C0C0C0" fill="none"/>
 <text x="59" y="193" fill="#000000" font-family="Arial" font-size="12">questmgr.h</text>
 <polyline points="143,181 148,180 152,179 157,178 162,177 167,176 171,175 176,174 181,173 185,172 190,171 197,169 203,168 210,166 217,165 224,163 231,162 238,160 244,159 251,157 257,156" stroke="#0000CD" fill="none"/>
 <polygon points="256,154 262,154 257,157 256,154" stroke="#0000CD" fill="#0000CD"/>
 <polygon points="136,221 61,221 58,224 58,247 133,247 136,244 136,221" stroke="#C0C0C0" fill="#FFFFFF"/>
 <polyline points="133,224 58,224" stroke="#C0C0C0" fill="none"/>
 <polyline points="133,224 133,247" stroke="#C0C0C0" fill="none"/>
 <polyline points="133,224 136,221" stroke="#C0C0C0" fill="none"/>
 <text x="65" y="237" fill="#000000" font-family="Arial" font-size="12">zonedb.h</text>
 <polyline points="137,228 142,227 147,225 153,224 158,223 164,221 169,220 174,218 180,216 185,214 190,212 199,208 209,203 218,198 227,193 236,188 245,182 253,177 261,172 268,167 275,162" stroke="#0000CD" fill="none"/>
 <polygon points="274,161 279,159 276,163 274,161" stroke="#0000CD" fill="#0000CD"/>
 <polygon points="154,45 43,45 40,48 40,71 151,71 154,68 154,45" stroke="#C0C0C0" fill="#FFFFFF"/>
 <polyline points="151,48 40,48" stroke="#C0C0C0" fill="none"/>
 <polyline points="151,48 151,71" stroke="#C0C0C0" fill="none"/>
 <polyline points="151,48 154,45" stroke="#C0C0C0" fill="none"/>
 <text x="48" y="61" fill="#000000" font-family="Arial" font-size="12">ItemInstQueue</text>
 <polyline points="154,69 158,70 161,71 165,72 169,73 172,74 176,75 180,76 183,77 187,79 190,80 199,84 209,89 218,94 227,99 236,104 245,110 253,115 261,120 268,125 275,130" stroke="#0000CD" fill="none"/>
 <polygon points="276,129 279,133 274,131 276,129" stroke="#0000CD" fill="#0000CD"/>
 <polygon points="144,265 53,265 50,268 50,291 141,291 144,288 144,265" stroke="#C0C0C0" fill="#FFFFFF"/>
 <polyline points="141,268 50,268" stroke="#C0C0C0" fill="none"/>
 <polyline points="141,268 141,291" stroke="#C0C0C0" fill="none"/>
 <polyline points="141,268 144,265" stroke="#C0C0C0" fill="none"/>
 <text x="58" y="281" fill="#000000" font-family="Arial" font-size="12">shareddb.h</text>
 <polyline points="144,272 149,271 154,270 158,269 163,267 168,266 172,264 177,262 181,260 186,258 190,256 202,248 214,240 225,231 236,221 246,210 255,200 264,190 272,181 278,172 284,164" stroke="#0000CD" fill="none"/>
 <polygon points="283,162 287,159 286,164 283,162" stroke="#0000CD" fill="#0000CD"/>
 <polygon points="132,309 65,309 62,312 62,335 129,335 132,332 132,309" stroke="#C0C0C0" fill="#FFFFFF"/>
 <polyline points="129,312 62,312" stroke="#C0C0C0" fill="none"/>
 <polyline points="129,312 129,335" stroke="#C0C0C0" fill="none"/>
 <polyline points="129,312 132,309" stroke="#C0C0C0" fill="none"/>
 <text x="70" y="325" fill="#000000" font-family="Arial" font-size="12">object.h</text>
 <polyline points="132,320 138,319 144,318 150,317 156,315 162,313 168,311 174,309 179,306 185,303 190,300 205,289 219,276 231,261 243,247 253,231 263,216 271,201 278,187 284,175 289,164" stroke="#0000CD" fill="none"/>
 <polygon points="287,163 291,159 291,164 287,163" stroke="#0000CD" fill="#0000CD"/>
 <polygon points="125,353 72,353 69,356 69,379 122,379 125,376 125,353" stroke="#C0C0C0" fill="#FFFFFF"/>
 <polyline points="122,356 69,356" stroke="#C0C0C0" fill="none"/>
 <polyline points="122,356 122,379" stroke="#C0C0C0" fill="none"/>
 <polyline points="122,356 125,353" stroke="#C0C0C0" fill="none"/>
 <text x="77" y="369" fill="#000000" font-family="Arial" font-size="12">RoF.h</text>
 <polyline points="125,365 131,364 138,363 144,362 151,361 158,359 165,357 171,354 178,351 184,348 190,344 208,329 223,311 237,292 250,272 260,251 269,231 277,211 283,193 288,177 292,164" stroke="#0000CD" fill="none"/>
 <polygon points="290,163 293,159 293,164 290,163" stroke="#0000CD" fill="#0000CD"/>
 <polygon points="145,397 52,397 49,400 49,423 142,423 145,420 145,397" stroke="#C0C0C0" fill="#FFFFFF"/>
 <polyline points="142,400 49,400" stroke="#C0C0C0" fill="none"/>
 <polyline points="142,400 142,423" stroke="#C0C0C0" fill="none"/>
 <polyline points="142,400 145,397" stroke="#C0C0C0" fill="none"/>
 <text x="57" y="413" fill="#000000" font-family="Arial" font-size="12">guild_mgr.h</text>
 <polyline points="145,407 150,406 155,405 160,403 164,402 169,400 174,398 178,396 182,394 186,391 190,388 210,368 228,346 243,322 256,296 266,271 275,245 282,221 287,199 291,180 294,164" stroke="#0000CD" fill="none"/>
 <polygon points="292,164 294,159 295,164 292,164" stroke="#0000CD" fill="#0000CD"/>
 <polygon points="145,441 52,441 49,444 49,467 142,467 145,464 145,441" stroke="#C0C0C0" fill="#FFFFFF"/>
 <polyline points="142,444 49,444" stroke="#C0C0C0" fill="none"/>
 <polyline points="142,444 142,467" stroke="#C0C0C0" fill="none"/>
 <polyline points="142,444 145,441" stroke="#C0C0C0" fill="none"/>
 <text x="57" y="457" fill="#000000" font-family="Arial" font-size="12">Underfoot.h</text>
 <polyline points="145,452 150,451 155,450 160,448 164,447 169,445 174,443 178,441 182,438 186,435 190,432 213,408 232,381 249,352 262,321 272,290 280,259 286,231 291,204 293,182 295,164" stroke="#0000CD" fill="none"/>
 <polygon points="293,164 295,159 297,164 293,164" stroke="#0000CD" fill="#0000CD"/>
 <polygon points="122,485 75,485 72,488 72,511 119,511 122,508 122,485" stroke="#C0C0C0" fill="#FFFFFF"/>
 <polyline points="119,488 72,488" stroke="#C0C0C0" fill="none"/>
 <polyline points="119,488 119,511" stroke="#C0C0C0" fill="none"/>
 <polyline points="119,488 122,485" stroke="#C0C0C0" fill="none"/>
 <text x="80" y="501" fill="#000000" font-family="Arial" font-size="12">bot.h</text>
 <polyline points="122,498 129,498 135,497 143,496 150,495 157,493 164,491 171,488 178,485 184,481 190,476 204,458 218,433 231,401 244,365 255,327 265,288 275,250 282,216 288,187 293,164" stroke="#0000CD" fill="none"/>
 <polygon points="291,164 294,159 294,164 291,164" stroke="#0000CD" fill="#0000CD"/>
 <polygon points="128,529 69,529 66,532 66,555 125,555 128,552 128,529" stroke="#C0C0C0" fill="#FFFFFF"/>
 <polyline points="125,532 66,532" stroke="#C0C0C0" fill="none"/>
 <polyline points="125,532 125,555" stroke="#C0C0C0" fill="none"/>
 <polyline points="125,532 128,529" stroke="#C0C0C0" fill="none"/>
 <text x="73" y="545" fill="#000000" font-family="Arial" font-size="12">entity.h</text>
 <polyline points="129,542 135,542 141,541 148,540 155,538 161,536 167,534 174,531 179,528 185,524 190,520 205,499 220,470 234,433 246,392 258,348 268,304 276,261 284,222 289,189 293,164" stroke="#0000CD" fill="none"/>
 <polygon points="292,164 294,159 295,164 292,164" stroke="#0000CD" fill="#0000CD"/>
 <polygon points="155,573 42,573 39,576 39,599 152,599 155,596 155,573" stroke="#C0C0C0" fill="#FFFFFF"/>
 <polyline points="152,576 39,576" stroke="#C0C0C0" fill="none"/>
 <polyline points="152,576 152,599" stroke="#C0C0C0" fill="none"/>
 <polyline points="152,576 155,573" stroke="#C0C0C0" fill="none"/>
 <text x="46" y="589" fill="#000000" font-family="Arial" font-size="12">perl_client.cpp</text>
 <polyline points="156,582 160,581 164,580 167,578 171,577 175,575 178,573 181,571 184,569 187,567 190,564 207,541 223,507 237,466 250,419 261,370 270,320 279,272 285,228 290,191 294,164" stroke="#0000CD" fill="none"/>
 <polygon points="292,164 295,159 296,164 292,164" stroke="#0000CD" fill="#0000CD"/>
 <polygon points="140,617 57,617 54,620 54,643 137,643 140,640 140,617" stroke="#C0C0C0" fill="#FFFFFF"/>
 <polyline points="137,620 54,620" stroke="#C0C0C0" fill="none"/>
 <polyline points="137,620 137,643" stroke="#C0C0C0" fill="none"/>
 <polyline points="137,620 140,617" stroke="#C0C0C0" fill="none"/>
 <text x="62" y="633" fill="#000000" font-family="Arial" font-size="12">Client62.h</text>
 <polyline points="140,629 145,628 151,627 156,626 162,624 167,623 172,620 177,618 182,615 186,612 190,608 208,582 225,544 239,498 252,446 263,391 273,336 281,283 287,235 291,195 294,165" stroke="#0000CD" fill="none"/>
 <polygon points="293,164 295,159 296,165 293,164" stroke="#0000CD" fill="#0000CD"/>
 <polygon points="159,661 38,661 35,664 35,687 156,687 159,684 159,661" stroke="#C0C0C0" fill="#FFFFFF"/>
 <polyline points="156,664 35,664" stroke="#C0C0C0" fill="none"/>
 <polyline points="156,664 156,687" stroke="#C0C0C0" fill="none"/>
 <polyline points="156,664 159,661" stroke="#C0C0C0" fill="none"/>
 <text x="43" y="677" fill="#000000" font-family="Arial" font-size="12">PlayerCorpse.h</text>
 <polyline points="159,670 163,669 166,667 169,666 173,665 176,663 179,661 182,659 185,657 188,655 190,652 210,623 227,581 242,530 255,473 267,412 276,350 283,292 288,239 292,196 295,164" stroke="#0000CD" fill="none"/>
 <polygon points="293,164 295,159 296,164 293,164" stroke="#0000CD" fill="#0000CD"/>
 <polygon points="148,705 49,705 46,708 46,731 145,731 148,728 148,705" stroke="#C0C0C0" fill="#FFFFFF"/>
 <polyline points="145,708 46,708" stroke="#C0C0C0" fill="none"/>
 <polyline points="145,708 145,731" stroke="#C0C0C0" fill="none"/>
 <polyline points="145,708 148,705" stroke="#C0C0C0" fill="none"/>
 <text x="53" y="721" fill="#000000" font-family="Arial" font-size="12">embparser.h</text>
 <polyline points="149,716 153,715 158,714 162,712 167,711 171,709 175,707 179,705 183,702 187,699 190,696 211,664 230,619 245,563 258,500 269,433 278,366 284,302 289,245 293,198 295,164" stroke="#0000CD" fill="none"/>
 <polygon points="293,164 295,159 297,164 293,164" stroke="#0000CD" fill="#0000CD"/>
 <polygon points="134,749 63,749 60,752 60,775 131,775 134,772 134,749" stroke="#C0C0C0" fill="#FFFFFF"/>
 <polyline points="131,752 60,752" stroke="#C0C0C0" fill="none"/>
 <polyline points="131,752 131,775" stroke="#C0C0C0" fill="none"/>
 <polyline points="131,752 134,749" stroke="#C0C0C0" fill="none"/>
 <text x="68" y="765" fill="#000000" font-family="Arial" font-size="12">SoF.cpp</text>
 <polyline points="134,762 140,762 146,761 152,760 158,758 164,756 170,754 176,751 181,748 186,744 190,740 213,705 232,656 248,595 262,526 272,454 280,381 286,312 291,250 294,200 295,164" stroke="#0000CD" fill="none"/>
 <polygon points="294,164 296,159 297,164 294,164" stroke="#0000CD" fill="#0000CD"/>
 <polygon points="171,793 26,793 23,796 23,819 168,819 171,816 171,793" stroke="#C0C0C0" fill="#FFFFFF"/>
 <polyline points="168,796 23,796" stroke="#C0C0C0" fill="none"/>
 <polyline points="168,796 168,819" stroke="#C0C0C0" fill="none"/>
 <polyline points="168,796 171,793" stroke="#C0C0C0" fill="none"/>
 <text x="30" y="809" fill="#000000" font-family="Arial" font-size="12">perl_questitem.cpp</text>
 <polyline points="172,797 174,796 176,795 178,794 179,793 181,792 183,790 185,789 187,787 188,786 190,784 214,747 234,693 251,627 264,553 275,475 282,397 288,323 292,257 295,203 296,165" stroke="#0000CD" fill="none"/>
 <polygon points="294,164 296,159 297,164 294,164" stroke="#0000CD" fill="#0000CD"/>
 <polygon points="140,837 57,837 54,840 54,863 137,863 140,860 140,837" stroke="#C0C0C0" fill="#FFFFFF"/>
 <polyline points="137,840 54,840" stroke="#C0C0C0" fill="none"/>
 <polyline points="137,840 137,863" stroke="#C0C0C0" fill="none"/>
 <polyline points="137,840 140,837" stroke="#C0C0C0" fill="none"/>
 <text x="62" y="853" fill="#000000" font-family="Arial" font-size="12">Titanium.h</text>
 <polyline points="140,850 145,849 151,848 156,847 162,845 167,844 172,841 177,839 182,835 186,832 190,828 216,788 237,730 254,659 267,579 277,495 285,411 290,332 293,261 295,204 296,164" stroke="#0000CD" fill="none"/>
 <polygon points="294,164 296,159 298,164 294,164" stroke="#0000CD" fill="#0000CD"/>
 <polygon points="134,881 63,881 60,884 60,907 131,907 134,904 134,881" stroke="#C0C0C0" fill="#FFFFFF"/>
 <polyline points="131,884 60,884" stroke="#C0C0C0" fill="none"/>
 <polyline points="131,884 131,907" stroke="#C0C0C0" fill="none"/>
 <polyline points="131,884 134,881" stroke="#C0C0C0" fill="none"/>
 <text x="68" y="897" fill="#000000" font-family="Arial" font-size="12">RoF.cpp</text>
 <polyline points="134,895 140,894 146,893 152,892 158,890 164,888 170,886 175,883 181,880 186,876 190,872 205,842 219,788 233,715 246,630 258,538 269,444 278,354 285,274 291,208 295,164" stroke="#0000CD" fill="none"/>
 <polygon points="293,164 295,159 296,164 293,164" stroke="#0000CD" fill="#0000CD"/>
 <polygon points="189,925 8,925 5,928 5,951 186,951 189,948 189,925" stroke="#C0C0C0" fill="#FFFFFF"/>
 <polyline points="186,928 5,928" stroke="#C0C0C0" fill="none"/>
 <polyline points="186,928 186,951" stroke="#C0C0C0" fill="none"/>
 <polyline points="186,928 189,925" stroke="#C0C0C0" fill="none"/>
 <text x="12" y="941" fill="#000000" font-family="Arial" font-size="12">QuestParserCollection.h</text>
 <polyline points="179,925 180,924 181,923 183,922 184,921 185,921 186,920 187,919 188,918 189,917 190,916 205,884 220,826 234,749 247,658 259,560 270,460 279,365 286,280 292,211 295,164" stroke="#0000CD" fill="none"/>
 <polygon points="293,164 295,159 296,164 293,164" stroke="#0000CD" fill="#0000CD"/>
 <polygon points="135,89 62,89 59,92 59,115 132,115 135,112 135,89" stroke="#C0C0C0" fill="#FFFFFF"/>
 <polyline points="132,92 59,92" stroke="#C0C0C0" fill="none"/>
 <polyline points="132,92 132,115" stroke="#C0C0C0" fill="none"/>
 <polyline points="132,92 135,89" stroke="#C0C0C0" fill="none"/>
 <text x="67" y="105" fill="#000000" font-family="Arial" font-size="12">Inventory</text>
 <polyline points="135,110 146,113 158,115 170,118 183,121 196,124 209,127 221,130 234,132 246,135 257,137" stroke="#0000CD" fill="none"/>
 <polygon points="257,136 262,138 256,139 257,136" stroke="#0000CD" fill="#0000CD"/>
 <polygon points="138,969 59,969 56,972 56,995 135,995 138,992 138,969" stroke="#C0C0C0" fill="#FFFFFF"/>
 <polyline points="135,972 56,972" stroke="#C0C0C0" fill="none"/>
 <polyline points="135,972 135,995" stroke="#C0C0C0" fill="none"/>
 <polyline points="135,972 138,969" stroke="#C0C0C0" fill="none"/>
 <text x="63" y="985" fill="#000000" font-family="Arial" font-size="12">worlddb.h</text>
 <polyline points="139,982 144,981 150,980 155,979 161,977 166,976 172,973 177,971 181,967 186,964 190,960 206,926 221,865 235,783 248,687 260,583 270,477 279,376 286,285 292,213 295,164" stroke="#0000CD" fill="none"/>
 <polygon points="293,164 295,159 297,164 293,164" stroke="#0000CD" fill="#0000CD"/>
 <polygon points="144,1013 53,1013 50,1016 50,1039 141,1039 144,1036 144,1013" stroke="#C0C0C0" fill="#FFFFFF"/>
 <polyline points="141,1016 50,1016" stroke="#C0C0C0" fill="none"/>
 <polyline points="141,1016 141,1039" stroke="#C0C0C0" fill="none"/>
 <polyline points="141,1016 144,1013" stroke="#C0C0C0" fill="none"/>
 <text x="58" y="1029" fill="#000000" font-family="Arial" font-size="12">trading.cpp</text>
 <polyline points="144,1026 149,1025 154,1024 159,1022 164,1021 169,1019 174,1016 178,1014 182,1011 186,1008 190,1004 207,968 223,903 237,816 250,715 262,604 272,492 280,386 287,291 292,215 295,164" stroke="#0000CD" fill="none"/>
 <polygon points="293,164 295,159 297,164 293,164" stroke="#0000CD" fill="#0000CD"/>
 <polygon points="154,1057 43,1057 40,1060 40,1083 151,1083 154,1080 154,1057" stroke="#C0C0C0" fill="#FFFFFF"/>
 <polyline points="151,1060 40,1060" stroke="#C0C0C0" fill="none"/>
 <polyline points="151,1060 151,1083" stroke="#C0C0C0" fill="none"/>
 <polyline points="151,1060 154,1057" stroke="#C0C0C0" fill="none"/>
 <text x="48" y="1073" fill="#000000" font-family="Arial" font-size="12">Underfoot.cpp</text>
 <polyline points="154,1068 158,1067 162,1065 166,1064 170,1062 174,1060 177,1058 181,1056 184,1054 187,1051 190,1048 208,1010 224,941 238,849 252,742 263,626 273,508 281,395 288,296 292,216 295,164" stroke="#0000CD" fill="none"/>
 <polygon points="293,164 295,159 297,164 293,164" stroke="#0000CD" fill="#0000CD"/>
 <polygon points="144,133 53,133 50,136 50,159 141,159 144,156 144,133" stroke="#C0C0C0" fill="#FFFFFF"/>
 <polyline points="141,136 50,136" stroke="#C0C0C0" fill="none"/>
 <polyline points="141,136 141,159" stroke="#C0C0C0" fill="none"/>
 <polyline points="141,136 144,133" stroke="#C0C0C0" fill="none"/>
 <text x="57" y="149" fill="#000000" font-family="Arial" font-size="12">EvoItemInst</text>
 <polyline points="145,146 156,146 167,146 178,146 190,146 202,146 214,146 225,146 236,146 247,146 257,146" stroke="#0000CD" fill="none"/>
 <polygon points="257,144 262,146 257,148 257,144" stroke="#0000CD" fill="#0000CD"/>
 <polygon points="127,1101 70,1101 67,1104 67,1127 124,1127 127,1124 127,1101" stroke="#C0C0C0" fill="#FFFFFF"/>
 <polyline points="124,1104 67,1104" stroke="#C0C0C0" fill="none"/>
 <polyline points="124,1104 124,1127" stroke="#C0C0C0" fill="none"/>
 <polyline points="124,1104 127,1101" stroke="#C0C0C0" fill="none"/>
 <text x="74" y="1117" fill="#000000" font-family="Arial" font-size="12">zone.h</text>
 <polyline points="128,1115 134,1115 141,1114 148,1113 155,1111 161,1110 168,1107 174,1104 180,1101 185,1097 190,1092 208,1052 225,980 240,884 253,771 265,649 274,525 282,407 288,303 293,220 295,165" stroke="#0000CD" fill="none"/>
 <polygon points="293,164 295,159 297,164 293,164" stroke="#0000CD" fill="#0000CD"/>
 <polygon points="126,1145 71,1145 68,1148 68,1171 123,1171 126,1168 126,1145" stroke="#C0C0C0" fill="#FFFFFF"/>
 <polyline points="123,1148 68,1148" stroke="#C0C0C0" fill="none"/>
 <polyline points="123,1148 123,1171" stroke="#C0C0C0" fill="none"/>
 <polyline points="123,1148 126,1145" stroke="#C0C0C0" fill="none"/>
 <text x="75" y="1161" fill="#000000" font-family="Arial" font-size="12">mob.h</text>
 <polyline points="127,1159 133,1159 140,1158 147,1157 154,1156 160,1154 167,1152 173,1149 179,1145 185,1141 190,1136 209,1094 226,1018 241,917 254,799 266,670 275,541 283,417 289,308 293,221 295,165" stroke="#0000CD" fill="none"/>
 <polygon points="294,164 295,159 297,164 294,164" stroke="#0000CD" fill="#0000CD"/>
 <polygon points="127,1189 70,1189 67,1192 67,1215 124,1215 127,1212 127,1189" stroke="#C0C0C0" fill="#FFFFFF"/>
 <polyline points="124,1192 67,1192" stroke="#C0C0C0" fill="none"/>
 <polyline points="124,1192 124,1215" stroke="#C0C0C0" fill="none"/>
 <polyline points="124,1192 127,1189" stroke="#C0C0C0" fill="none"/>
 <text x="75" y="1205" fill="#000000" font-family="Arial" font-size="12">SoD.h</text>
 <polyline points="127,1203 133,1203 140,1202 147,1201 154,1200 161,1198 167,1196 174,1193 180,1189 185,1185 190,1180 210,1136 227,1056 243,950 256,826 267,692 276,556 284,427 289,313 293,222 295,164" stroke="#0000CD" fill="none"/>
 <polygon points="294,164 296,159 297,164 294,164" stroke="#0000CD" fill="#0000CD"/>
 <polygon points="141,1233 56,1233 53,1236 53,1259 138,1259 141,1256 141,1233" stroke="#C0C0C0" fill="#FFFFFF"/>
 <polyline points="138,1236 53,1236" stroke="#C0C0C0" fill="none"/>
 <polyline points="138,1236 138,1259" stroke="#C0C0C0" fill="none"/>
 <polyline points="138,1236 141,1233" stroke="#C0C0C0" fill="none"/>
 <text x="61" y="1249" fill="#000000" font-family="Arial" font-size="12">common.h</text>
 <polyline points="141,1246 146,1245 152,1244 157,1243 163,1241 168,1240 173,1237 178,1235 182,1231 186,1228 190,1224 211,1178 229,1095 244,984 257,854 268,714 277,572 284,437 290,318 293,224 295,164" stroke="#0000CD" fill="none"/>
 <polygon points="294,164 296,159 297,164 294,164" stroke="#0000CD" fill="#0000CD"/>
 <polygon points="145,1277 52,1277 49,1280 49,1303 142,1303 145,1300 145,1277" stroke="#C0C0C0" fill="#FFFFFF"/>
 <polyline points="142,1280 49,1280" stroke="#C0C0C0" fill="none"/>
 <polyline points="142,1280 142,1303" stroke="#C0C0C0" fill="none"/>
 <polyline points="142,1280 145,1277" stroke="#C0C0C0" fill="none"/>
 <text x="56" y="1293" fill="#000000" font-family="Arial" font-size="12">command.h</text>
 <polyline points="146,1289 151,1288 156,1287 160,1286 165,1284 170,1283 174,1280 179,1278 183,1275 187,1272 190,1268 211,1220 230,1133 246,1017 259,882 270,736 279,588 286,447 291,324 294,226 296,164" stroke="#0000CD" fill="none"/>
 <polygon points="294,164 296,159 297,164 294,164" stroke="#0000CD" fill="#0000CD"/>
 <polygon points="125,1321 72,1321 69,1324 69,1347 122,1347 125,1344 125,1321" stroke="#C0C0C0" fill="#FFFFFF"/>
 <polyline points="122,1324 69,1324" stroke="#C0C0C0" fill="none"/>
 <polyline points="122,1324 122,1347" stroke="#C0C0C0" fill="none"/>
 <polyline points="122,1324 125,1321" stroke="#C0C0C0" fill="none"/>
 <text x="77" y="1337" fill="#000000" font-family="Arial" font-size="12">SoF.h</text>
 <polyline points="125,1335 131,1335 138,1334 145,1333 152,1332 159,1330 166,1328 173,1325 179,1321 185,1317 190,1312 212,1262 231,1171 247,1051 260,909 271,757 280,603 286,457 291,329 294,228 296,164" stroke="#0000CD" fill="none"/>
 <polygon points="294,164 296,159 297,164 294,164" stroke="#0000CD" fill="#0000CD"/>
 <polygon points="149,1365 48,1365 45,1368 45,1391 146,1391 149,1388 149,1365" stroke="#C0C0C0" fill="#FFFFFF"/>
 <polyline points="146,1368 45,1368" stroke="#C0C0C0" fill="none"/>
 <polyline points="146,1368 146,1391" stroke="#C0C0C0" fill="none"/>
 <polyline points="146,1368 149,1365" stroke="#C0C0C0" fill="none"/>
 <text x="53" y="1381" fill="#000000" font-family="Arial" font-size="12">Client62.cpp</text>
 <polyline points="149,1377 154,1376 158,1375 163,1373 167,1372 172,1370 176,1368 180,1365 183,1363 187,1359 190,1356 213,1304 232,1210 248,1084 262,938 273,779 281,619 287,468 292,335 295,230 296,164" stroke="#0000CD" fill="none"/>
 <polygon points="294,164 296,159 297,164 294,164" stroke="#0000CD" fill="#0000CD"/>
 <polygon points="144,1409 53,1409 50,1412 50,1435 141,1435 144,1432 144,1409" stroke="#C0C0C0" fill="#FFFFFF"/>
 <polyline points="141,1412 50,1412" stroke="#C0C0C0" fill="none"/>
 <polyline points="141,1412 141,1435" stroke="#C0C0C0" fill="none"/>
 <polyline points="141,1412 144,1409" stroke="#C0C0C0" fill="none"/>
 <text x="58" y="1425" fill="#000000" font-family="Arial" font-size="12">database.h</text>
 <polyline points="144,1422 149,1421 154,1420 159,1418 164,1417 169,1415 174,1412 178,1410 183,1407 186,1404 190,1400 213,1346 233,1248 249,1118 263,966 273,801 282,635 288,479 292,341 295,233 296,165" stroke="#0000CD" fill="none"/>
 <polygon points="294,164 296,159 297,164 294,164" stroke="#0000CD" fill="#0000CD"/>
 <polygon points="138,1453 59,1453 56,1456 56,1479 135,1479 138,1476 138,1453" stroke="#C0C0C0" fill="#FFFFFF"/>
 <polyline points="135,1456 56,1456" stroke="#C0C0C0" fill="none"/>
 <polyline points="135,1456 135,1479" stroke="#C0C0C0" fill="none"/>
 <polyline points="135,1456 138,1453" stroke="#C0C0C0" fill="none"/>
 <text x="63" y="1469" fill="#000000" font-family="Arial" font-size="12">clientlist.h</text>
 <polyline points="139,1467 144,1466 150,1465 155,1464 161,1462 166,1460 172,1458 177,1455 181,1452 186,1448 190,1444 214,1388 234,1286 251,1151 264,994 275,823 283,651 289,489 293,347 295,235 296,165" stroke="#0000CD" fill="none"/>
 <polygon points="294,164 296,159 298,164 294,164" stroke="#0000CD" fill="#0000CD"/>
 <polygon points="149,1497 48,1497 45,1500 45,1523 146,1523 149,1520 149,1497" stroke="#C0C0C0" fill="#FFFFFF"/>
 <polyline points="146,1500 45,1500" stroke="#C0C0C0" fill="none"/>
 <polyline points="146,1500 146,1523" stroke="#C0C0C0" fill="none"/>
 <polyline points="146,1500 149,1497" stroke="#C0C0C0" fill="none"/>
 <text x="53" y="1513" fill="#000000" font-family="Arial" font-size="12">Titanium.cpp</text>
 <polyline points="149,1509 154,1508 158,1507 163,1505 167,1504 172,1502 176,1500 180,1497 183,1495 187,1491 190,1488 215,1430 235,1325 252,1185 266,1021 276,844 284,666 289,498 293,351 295,236 296,164" stroke="#0000CD" fill="none"/>
 <polygon points="294,164 296,159 298,164 294,164" stroke="#0000CD" fill="#0000CD"/>
 <polygon points="123,1541 74,1541 71,1544 71,1567 120,1567 123,1564 123,1541" stroke="#C0C0C0" fill="#FFFFFF"/>
 <polyline points="120,1544 71,1544" stroke="#C0C0C0" fill="none"/>
 <polyline points="120,1544 120,1567" stroke="#C0C0C0" fill="none"/>
 <polyline points="120,1544 123,1541" stroke="#C0C0C0" fill="none"/>
 <text x="78" y="1557" fill="#000000" font-family="Arial" font-size="12">npc.h</text>
 <polyline points="124,1556 131,1556 137,1555 144,1554 152,1553 159,1551 166,1548 173,1545 179,1542 185,1537 190,1532 216,1471 237,1363 254,1218 267,1049 278,867 285,683 290,509 294,357 295,238 296,165" stroke="#0000CD" fill="none"/>
 <polygon points="294,164 296,159 298,164 294,164" stroke="#0000CD" fill="#0000CD"/>
 <polygon points="131,1585 66,1585 63,1588 63,1611 128,1611 131,1608 131,1585" stroke="#C0C0C0" fill="#FFFFFF"/>
 <polyline points="128,1588 63,1588" stroke="#C0C0C0" fill="none"/>
 <polyline points="128,1588 128,1611" stroke="#C0C0C0" fill="none"/>
 <polyline points="128,1588 131,1585" stroke="#C0C0C0" fill="none"/>
 <text x="71" y="1601" fill="#000000" font-family="Arial" font-size="12">doors.h</text>
 <polyline points="131,1599 137,1599 144,1598 150,1597 157,1595 163,1594 169,1591 175,1588 181,1585 186,1581 190,1576 216,1513 238,1401 255,1252 268,1077 279,888 286,698 291,519 294,362 295,240 296,165" stroke="#0000CD" fill="none"/>
 <polygon points="294,164 296,159 298,164 294,164" stroke="#0000CD" fill="#0000CD"/>
 <polygon points="136,1629 61,1629 58,1632 58,1655 133,1655 136,1652 136,1629" stroke="#C0C0C0" fill="#FFFFFF"/>
 <polyline points="133,1632 58,1632" stroke="#C0C0C0" fill="none"/>
 <polyline points="133,1632 133,1655" stroke="#C0C0C0" fill="none"/>
 <polyline points="133,1632 136,1629" stroke="#C0C0C0" fill="none"/>
 <text x="66" y="1645" fill="#000000" font-family="Arial" font-size="12">SoD.cpp</text>
 <polyline points="136,1643 142,1642 148,1641 154,1640 159,1638 165,1636 171,1634 176,1631 181,1628 186,1624 190,1620 205,1570 220,1462 234,1312 247,1131 259,933 270,732 279,542 287,374 292,245 295,165" stroke="#0000CD" fill="none"/>
 <polygon points="294,164 296,159 297,164 294,164" stroke="#0000CD" fill="#0000CD"/>
</svg>
