<?xml version="1.0"?>
<svg width="499" height="2098" xmlns="http://www.w3.org/2000/svg" version="1.1">
 <rect x="11" y="57" width="360" height="2034" stroke="#20208C" fill="white"/>
 <text fill="#8C2020" font-family="Arial" font-size="10">
  <tspan x="14" y="70">Class: ItemInst</tspan>>
  <tspan x="14" y="90">defined as:</tspan>
  <tspan x="14" y="100" xml:space='preserve'>  </tspan></text>
 <text x="395" y="17" fill="black" font-family="Arial" font-size="10">Derived Classes:</text>
 <polyline points="371,60 380,60 380,38 395,38" stroke="#8C2020" fill="none"/>
 <polygon points="395,38 389,35 389,41 395,38" stroke="#8C2020" fill="#8C2020"/>
 <polygon points="395,38 400,27 473,27 478,38 473,49 400,49 395,38" stroke="#20208C" fill="white"/>
 <text x="403" y="40" fill="black" font-family="Arial" font-size="10">EvoItemInst</text>
 <rect x="11" y="132" width="123" height="22" stroke="#20208C" fill="white"/>
 <text x="14" y="145" fill="black" font-family="Arial" font-size="10">iter_contents _begin</text>
 <rect x="11" y="158" width="113" height="22" stroke="#20208C" fill="white"/>
 <text x="14" y="171" fill="black" font-family="Arial" font-size="10">iter_contents _end</text>
 <rect x="11" y="184" width="84" height="22" stroke="#20208C" fill="white"/>
 <text x="14" y="197" fill="black" font-family="Arial" font-size="10">void _PutItem</text>
 <rect x="201" y="132" width="170" height="22" rx="8" stroke="#20208C" fill="white"/>
 <text x="211" y="145" fill="black" font-family="Arial" font-size="10">ItemUseType m_use_type</text>
 <rect x="192" y="158" width="179" height="22" rx="8" stroke="#20208C" fill="white"/>
 <text x="202" y="171" fill="black" font-family="Arial" font-size="10">const Item_Struct * m_item</text>
 <rect x="255" y="184" width="116" height="22" rx="8" stroke="#20208C" fill="white"/>
 <text x="265" y="197" fill="black" font-family="Arial" font-size="10">int16 m_charges</text>
 <rect x="266" y="210" width="105" height="22" rx="8" stroke="#20208C" fill="white"/>
 <text x="276" y="223" fill="black" font-family="Arial" font-size="10">uint32 m_price</text>
 <rect x="266" y="236" width="105" height="22" rx="8" stroke="#20208C" fill="white"/>
 <text x="276" y="249" fill="black" font-family="Arial" font-size="10">uint32 m_color</text>
 <rect x="219" y="262" width="152" height="22" rx="8" stroke="#20208C" fill="white"/>
 <text x="229" y="275" fill="black" font-family="Arial" font-size="10">uint32 m_merchantslot</text>
 <rect x="240" y="288" width="131" height="22" rx="8" stroke="#20208C" fill="white"/>
 <text x="250" y="301" fill="black" font-family="Arial" font-size="10">int16 m_currentslot</text>
 <rect x="245" y="314" width="126" height="22" rx="8" stroke="#20208C" fill="white"/>
 <text x="255" y="327" fill="black" font-family="Arial" font-size="10">bool m_instnodrop</text>
 <rect x="215" y="340" width="156" height="22" rx="8" stroke="#20208C" fill="white"/>
 <text x="225" y="353" fill="black" font-family="Arial" font-size="10">int32 m_merchantcount</text>
 <rect x="223" y="366" width="148" height="22" rx="8" stroke="#20208C" fill="white"/>
 <text x="233" y="379" fill="black" font-family="Arial" font-size="10">int32 m_SerialNumber</text>
 <rect x="216" y="392" width="155" height="38" rx="8" stroke="#20208C" fill="white"/>
 <text fill="black" font-family="Arial" font-size="10">
  <tspan x="226" y="405">map&lt;uint8,</tspan>
  <tspan x="226" y="415">ItemInst *&gt; m_contents</tspan></text>
 <rect x="188" y="434" width="183" height="38" rx="8" stroke="#20208C" fill="white"/>
 <text fill="black" font-family="Arial" font-size="10">
  <tspan x="198" y="447">map&lt;std::string,</tspan>
  <tspan x="198" y="457">std::string&gt; m_custom_data</tspan></text>
 <rect x="7" y="214" width="78" height="22" stroke="#20208C" fill="white"/>
 <text x="10" y="227" fill="black" font-family="Arial" font-size="10">void ItemInst</text>
 <rect x="7" y="240" width="78" height="22" stroke="#20208C" fill="white"/>
 <text x="10" y="253" fill="black" font-family="Arial" font-size="10">void ItemInst</text>
 <rect x="7" y="266" width="78" height="22" stroke="#20208C" fill="white"/>
 <text x="10" y="279" fill="black" font-family="Arial" font-size="10">void ItemInst</text>
 <rect x="7" y="292" width="78" height="22" stroke="#20208C" fill="white"/>
 <text x="10" y="305" fill="black" font-family="Arial" font-size="10">void ItemInst</text>
 <rect x="7" y="318" width="86" height="22" stroke="#20208C" fill="white"/>
 <text x="10" y="331" fill="black" font-family="Arial" font-size="10">void ~ItemInst</text>
 <rect x="7" y="344" width="71" height="22" stroke="#20208C" fill="white"/>
 <text x="10" y="357" fill="black" font-family="Arial" font-size="10">bool IsType</text>
 <rect x="7" y="370" width="102" height="22" stroke="#20208C" fill="white"/>
 <text x="10" y="383" fill="black" font-family="Arial" font-size="10">bool IsStackable</text>
 <rect x="7" y="396" width="101" height="22" stroke="#20208C" fill="white"/>
 <text x="10" y="409" fill="black" font-family="Arial" font-size="10">bool IsEquipable</text>
 <rect x="7" y="422" width="101" height="22" stroke="#20208C" fill="white"/>
 <text x="10" y="435" fill="black" font-family="Arial" font-size="10">bool IsEquipable</text>
 <rect x="7" y="448" width="120" height="22" stroke="#20208C" fill="white"/>
 <text x="10" y="461" fill="black" font-family="Arial" font-size="10">bool IsAugmentable</text>
 <rect x="7" y="474" width="138" height="22" stroke="#20208C" fill="white"/>
 <text x="10" y="487" fill="black" font-family="Arial" font-size="10">bool AvailableWearSlot</text>
 <rect x="7" y="500" width="156" height="22" stroke="#20208C" fill="white"/>
 <text x="10" y="513" fill="black" font-family="Arial" font-size="10">int8 AvailableAugmentSlot</text>
 <rect x="7" y="526" width="138" height="22" stroke="#20208C" fill="white"/>
 <text x="10" y="539" fill="black" font-family="Arial" font-size="10">int32 GetAugmentType</text>
 <rect x="7" y="552" width="112" height="22" stroke="#20208C" fill="white"/>
 <text x="10" y="565" fill="black" font-family="Arial" font-size="10">bool IsExpendable</text>
 <rect x="7" y="578" width="111" height="22" stroke="#20208C" fill="white"/>
 <text x="10" y="591" fill="black" font-family="Arial" font-size="10">ItemInst * GetItem</text>
 <rect x="7" y="604" width="103" height="22" stroke="#20208C" fill="white"/>
 <text x="10" y="617" fill="black" font-family="Arial" font-size="10">uint32 GetItemID</text>
 <rect x="7" y="630" width="156" height="22" stroke="#20208C" fill="white"/>
 <text x="10" y="643" fill="black" font-family="Arial" font-size="10">const ItemInst * operator[]</text>
 <rect x="7" y="656" width="77" height="22" stroke="#20208C" fill="white"/>
 <text x="10" y="669" fill="black" font-family="Arial" font-size="10">void PutItem</text>
 <rect x="7" y="682" width="77" height="22" stroke="#20208C" fill="white"/>
 <text x="10" y="695" fill="black" font-family="Arial" font-size="10">void PutItem</text>
 <rect x="7" y="708" width="94" height="22" stroke="#20208C" fill="white"/>
 <text x="10" y="721" fill="black" font-family="Arial" font-size="10">void DeleteItem</text>
 <rect x="7" y="734" width="113" height="22" stroke="#20208C" fill="white"/>
 <text x="10" y="747" fill="black" font-family="Arial" font-size="10">ItemInst * PopItem</text>
 <rect x="7" y="760" width="62" height="22" stroke="#20208C" fill="white"/>
 <text x="10" y="773" fill="black" font-family="Arial" font-size="10">void Clear</text>
 <rect x="7" y="786" width="110" height="22" stroke="#20208C" fill="white"/>
 <text x="10" y="799" fill="black" font-family="Arial" font-size="10">void ClearByFlags</text>
 <rect x="7" y="812" width="118" height="22" stroke="#20208C" fill="white"/>
 <text x="10" y="825" fill="black" font-family="Arial" font-size="10">uint8 FirstOpenSlot</text>
 <rect x="7" y="838" width="144" height="22" stroke="#20208C" fill="white"/>
 <text x="10" y="851" fill="black" font-family="Arial" font-size="10">uint8 GetTotalItemCount</text>
 <rect x="7" y="864" width="167" height="22" stroke="#20208C" fill="white"/>
 <text x="10" y="877" fill="black" font-family="Arial" font-size="10">bool IsNoneEmptyContainer</text>
 <rect x="7" y="890" width="155" height="38" stroke="#20208C" fill="white"/>
 <text fill="black" font-family="Arial" font-size="10">
  <tspan x="10" y="903">map&lt;uint8,</tspan>
  <tspan x="10" y="913">ItemInst *&gt; * GetContents</tspan></text>
 <rect x="7" y="932" width="138" height="22" stroke="#20208C" fill="white"/>
 <text x="10" y="945" fill="black" font-family="Arial" font-size="10">ItemInst * GetAugment</text>
 <rect x="7" y="958" width="155" height="22" stroke="#20208C" fill="white"/>
 <text x="10" y="971" fill="black" font-family="Arial" font-size="10">uint32 GetAugmentItemID</text>
 <rect x="7" y="984" width="104" height="22" stroke="#20208C" fill="white"/>
 <text x="10" y="997" fill="black" font-family="Arial" font-size="10">void PutAugment</text>
 <rect x="7" y="1010" width="104" height="22" stroke="#20208C" fill="white"/>
 <text x="10" y="1023" fill="black" font-family="Arial" font-size="10">void PutAugment</text>
 <rect x="7" y="1036" width="121" height="22" stroke="#20208C" fill="white"/>
 <text x="10" y="1049" fill="black" font-family="Arial" font-size="10">void DeleteAugment</text>
 <rect x="7" y="1062" width="163" height="22" stroke="#20208C" fill="white"/>
 <text x="10" y="1075" fill="black" font-family="Arial" font-size="10">ItemInst * RemoveAugment</text>
 <rect x="7" y="1088" width="110" height="22" stroke="#20208C" fill="white"/>
 <text x="10" y="1101" fill="black" font-family="Arial" font-size="10">bool IsAugmented</text>
 <rect x="7" y="1114" width="92" height="22" stroke="#20208C" fill="white"/>
 <text x="10" y="1127" fill="black" font-family="Arial" font-size="10">bool IsWeapon</text>
 <rect x="7" y="1140" width="82" height="22" stroke="#20208C" fill="white"/>
 <text x="10" y="1153" fill="black" font-family="Arial" font-size="10">bool IsAmmo</text>
 <rect x="7" y="1166" width="114" height="22" stroke="#20208C" fill="white"/>
 <text x="10" y="1179" fill="black" font-family="Arial" font-size="10">const uint32 GetID</text>
 <rect x="7" y="1192" width="173" height="22" stroke="#20208C" fill="white"/>
 <text x="10" y="1205" fill="black" font-family="Arial" font-size="10">const uint32 GetItemScriptID</text>
 <rect x="7" y="1218" width="168" height="22" stroke="#20208C" fill="white"/>
 <text x="10" y="1231" fill="black" font-family="Arial" font-size="10">const Item_Struct * GetItem</text>
 <rect x="7" y="1244" width="77" height="22" stroke="#20208C" fill="white"/>
 <text x="10" y="1257" fill="black" font-family="Arial" font-size="10">void SetItem</text>
 <rect x="7" y="1270" width="107" height="22" stroke="#20208C" fill="white"/>
 <text x="10" y="1283" fill="black" font-family="Arial" font-size="10">int16 GetCharges</text>
 <rect x="7" y="1296" width="100" height="22" stroke="#20208C" fill="white"/>
 <text x="10" y="1309" fill="black" font-family="Arial" font-size="10">void SetCharges</text>
 <rect x="7" y="1322" width="96" height="22" stroke="#20208C" fill="white"/>
 <text x="10" y="1335" fill="black" font-family="Arial" font-size="10">uint32 GetPrice</text>
 <rect x="7" y="1348" width="82" height="22" stroke="#20208C" fill="white"/>
 <text x="10" y="1361" fill="black" font-family="Arial" font-size="10">void SetPrice</text>
 <rect x="7" y="1374" width="82" height="22" stroke="#20208C" fill="white"/>
 <text x="10" y="1387" fill="black" font-family="Arial" font-size="10">void SetColor</text>
 <rect x="7" y="1400" width="96" height="22" stroke="#20208C" fill="white"/>
 <text x="10" y="1413" fill="black" font-family="Arial" font-size="10">uint32 GetColor</text>
 <rect x="7" y="1426" width="143" height="22" stroke="#20208C" fill="white"/>
 <text x="10" y="1439" fill="black" font-family="Arial" font-size="10">uint32 GetMerchantSlot</text>
 <rect x="7" y="1452" width="129" height="22" stroke="#20208C" fill="white"/>
 <text x="10" y="1465" fill="black" font-family="Arial" font-size="10">void SetMerchantSlot</text>
 <rect x="7" y="1478" width="147" height="22" stroke="#20208C" fill="white"/>
 <text x="10" y="1491" fill="black" font-family="Arial" font-size="10">int32 GetMerchantCount</text>
 <rect x="7" y="1504" width="140" height="22" stroke="#20208C" fill="white"/>
 <text x="10" y="1517" fill="black" font-family="Arial" font-size="10">void SetMerchantCount</text>
 <rect x="7" y="1530" width="124" height="22" stroke="#20208C" fill="white"/>
 <text x="10" y="1543" fill="black" font-family="Arial" font-size="10">int16 GetCurrentSlot</text>
 <rect x="7" y="1556" width="117" height="22" stroke="#20208C" fill="white"/>
 <text x="10" y="1569" fill="black" font-family="Arial" font-size="10">void SetCurrentSlot</text>
 <rect x="7" y="1582" width="108" height="22" stroke="#20208C" fill="white"/>
 <text x="10" y="1595" fill="black" font-family="Arial" font-size="10">bool IsInstNoDrop</text>
 <rect x="7" y="1608" width="116" height="22" stroke="#20208C" fill="white"/>
 <text x="10" y="1621" fill="black" font-family="Arial" font-size="10">void SetInstNoDrop</text>
 <rect x="7" y="1634" width="133" height="38" stroke="#20208C" fill="white"/>
 <text fill="black" font-family="Arial" font-size="10">
  <tspan x="10" y="1647">std::string </tspan>
  <tspan x="10" y="1657">GetCustomDataString</tspan></text>
 <rect x="7" y="1676" width="124" height="22" stroke="#20208C" fill="white"/>
 <text x="10" y="1689" fill="black" font-family="Arial" font-size="10">void SetCustomData</text>
 <rect x="7" y="1702" width="124" height="22" stroke="#20208C" fill="white"/>
 <text x="10" y="1715" fill="black" font-family="Arial" font-size="10">void SetCustomData</text>
 <rect x="7" y="1728" width="124" height="22" stroke="#20208C" fill="white"/>
 <text x="10" y="1741" fill="black" font-family="Arial" font-size="10">void SetCustomData</text>
 <rect x="7" y="1754" width="124" height="22" stroke="#20208C" fill="white"/>
 <text x="10" y="1767" fill="black" font-family="Arial" font-size="10">void SetCustomData</text>
 <rect x="7" y="1780" width="161" height="22" stroke="#20208C" fill="white"/>
 <text x="10" y="1793" fill="black" font-family="Arial" font-size="10">std::string GetCustomData</text>
 <rect x="7" y="1806" width="141" height="22" stroke="#20208C" fill="white"/>
 <text x="10" y="1819" fill="black" font-family="Arial" font-size="10">void DeleteCustomData</text>
 <rect x="7" y="1832" width="118" height="22" stroke="#20208C" fill="white"/>
 <text x="10" y="1845" fill="black" font-family="Arial" font-size="10">bool operator _Bool</text>
 <rect x="7" y="1858" width="97" height="22" stroke="#20208C" fill="white"/>
 <text x="10" y="1871" fill="black" font-family="Arial" font-size="10">bool operator==</text>
 <rect x="7" y="1884" width="92" height="22" stroke="#20208C" fill="white"/>
 <text x="10" y="1897" fill="black" font-family="Arial" font-size="10">bool operator!=</text>
 <rect x="7" y="1910" width="98" height="22" stroke="#20208C" fill="white"/>
 <text x="10" y="1923" fill="black" font-family="Arial" font-size="10">ItemInst * Clone</text>
 <rect x="7" y="1936" width="112" height="22" stroke="#20208C" fill="white"/>
 <text x="10" y="1949" fill="black" font-family="Arial" font-size="10">bool IsSlotAllowed</text>
 <rect x="7" y="1962" width="87" height="22" stroke="#20208C" fill="white"/>
 <text x="10" y="1975" fill="black" font-family="Arial" font-size="10">bool IsScaling</text>
 <rect x="7" y="1988" width="90" height="22" stroke="#20208C" fill="white"/>
 <text x="10" y="2001" fill="black" font-family="Arial" font-size="10">bool IsEvolving</text>
 <rect x="7" y="2014" width="92" height="22" stroke="#20208C" fill="white"/>
 <text x="10" y="2027" fill="black" font-family="Arial" font-size="10">string Serialize</text>
 <rect x="7" y="2040" width="137" height="22" stroke="#20208C" fill="white"/>
 <text x="10" y="2053" fill="black" font-family="Arial" font-size="10">int32 GetSerialNumber</text>
 <rect x="7" y="2066" width="130" height="22" stroke="#20208C" fill="white"/>
 <text x="10" y="2079" fill="black" font-family="Arial" font-size="10">void SetSerialNumber</text>
</svg>
