<?xml version="1.0"?>
<svg width="276" height="842" xmlns="http://www.w3.org/2000/svg" version="1.1">
 <polyline points="163,18 171,18 181,421 207,421" stroke="#8C2020" fill="none"/>
 <polyline points="163,44 171,44 181,421 207,421" stroke="#8C2020" fill="none"/>
 <polyline points="163,70 171,70 181,421 207,421" stroke="#8C2020" fill="none"/>
 <polyline points="163,96 171,96 181,421 207,421" stroke="#8C2020" fill="none"/>
 <polyline points="163,122 171,122 181,421 207,421" stroke="#8C2020" fill="none"/>
 <polyline points="163,148 171,148 181,421 207,421" stroke="#8C2020" fill="none"/>
 <polyline points="163,174 171,174 181,421 207,421" stroke="#8C2020" fill="none"/>
 <polyline points="163,200 171,200 181,421 207,421" stroke="#8C2020" fill="none"/>
 <polyline points="163,226 171,226 181,421 207,421" stroke="#8C2020" fill="none"/>
 <polyline points="163,252 171,252 181,421 207,421" stroke="#8C2020" fill="none"/>
 <polyline points="163,278 171,278 181,421 207,421" stroke="#8C2020" fill="none"/>
 <polyline points="163,304 171,304 181,421 207,421" stroke="#8C2020" fill="none"/>
 <polyline points="163,330 171,330 181,421 207,421" stroke="#8C2020" fill="none"/>
 <polyline points="163,356 171,356 181,421 207,421" stroke="#8C2020" fill="none"/>
 <polyline points="163,382 171,382 181,421 207,421" stroke="#8C2020" fill="none"/>
 <polyline points="163,408 171,408 181,421 207,421" stroke="#8C2020" fill="none"/>
 <polyline points="163,434 171,434 181,421 207,421" stroke="#8C2020" fill="none"/>
 <polyline points="163,460 171,460 181,421 207,421" stroke="#8C2020" fill="none"/>
 <polyline points="163,486 171,486 181,421 207,421" stroke="#8C2020" fill="none"/>
 <polyline points="163,512 171,512 181,421 207,421" stroke="#8C2020" fill="none"/>
 <polyline points="163,538 171,538 181,421 207,421" stroke="#8C2020" fill="none"/>
 <polyline points="163,564 171,564 181,421 207,421" stroke="#8C2020" fill="none"/>
 <polyline points="163,590 171,590 181,421 207,421" stroke="#8C2020" fill="none"/>
 <polyline points="163,616 171,616 181,421 207,421" stroke="#8C2020" fill="none"/>
 <polyline points="163,642 171,642 181,421 207,421" stroke="#8C2020" fill="none"/>
 <polyline points="163,668 171,668 181,421 207,421" stroke="#8C2020" fill="none"/>
 <polyline points="163,694 171,694 181,421 207,421" stroke="#8C2020" fill="none"/>
 <polyline points="163,720 171,720 181,421 207,421" stroke="#8C2020" fill="none"/>
 <polyline points="163,746 171,746 181,421 207,421" stroke="#8C2020" fill="none"/>
 <polyline points="163,772 171,772 181,421 207,421" stroke="#8C2020" fill="none"/>
 <polyline points="163,798 171,798 181,421 207,421" stroke="#8C2020" fill="none"/>
 <polyline points="163,824 171,824 181,421 207,421" stroke="#8C2020" fill="none"/>
 <polygon points="207,421 212,410 264,410 269,421 264,432 212,432 207,421" stroke="#20208C" fill="#FFFFFF"/>
 <text x="215" y="423" fill="#8C2020" font-family="Arial" font-size="10">ItemInst</text>
 <ellipse cx="203" cy="421" rx="4" ry="4" stroke="#8C2020" fill="#8C2020"/>
 <polygon points="58,18 63,7 158,7 163,18 158,29 63,29 58,18" stroke="#20208C" fill="#FFFFFF"/>
 <text x="66" y="20" fill="#000000" font-family="Arial" font-size="10">WorldDatabase</text>
 <ellipse cx="54" cy="18" rx="4" ry="4" stroke="#8C2020" fill="#8C2020"/>
 <polygon points="64,44 69,33 158,33 163,44 158,55 69,55 64,44" stroke="#20208C" fill="#FFFFFF"/>
 <text x="72" y="46" fill="#000000" font-family="Arial" font-size="10">ZoneDatabase</text>
 <ellipse cx="60" cy="44" rx="4" ry="4" stroke="#8C2020" fill="#8C2020"/>
 <polygon points="98,70 103,59 158,59 163,70 158,81 103,81 98,70" stroke="#20208C" fill="#FFFFFF"/>
 <text x="106" y="72" fill="#000000" font-family="Arial" font-size="10">Strategy</text>
 <ellipse cx="94" cy="70" rx="4" ry="4" stroke="#8C2020" fill="#8C2020"/>
 <polygon points="51,96 56,85 158,85 163,96 158,107 56,107 51,96" stroke="#20208C" fill="#FFFFFF"/>
 <text x="59" y="98" fill="#000000" font-family="Arial" font-size="10">SharedDatabase</text>
 <ellipse cx="47" cy="96" rx="4" ry="4" stroke="#8C2020" fill="#8C2020"/>
 <polygon points="127,122 132,111 158,111 163,122 158,133 132,133 127,122" stroke="#20208C" fill="#FFFFFF"/>
 <text x="135" y="124" fill="#000000" font-family="Arial" font-size="10">Bot</text>
 <ellipse cx="123" cy="122" rx="4" ry="4" stroke="#8C2020" fill="#8C2020"/>
 <polygon points="116,148 121,137 158,137 163,148 158,159 121,159 116,148" stroke="#20208C" fill="#FFFFFF"/>
 <text x="124" y="150" fill="#000000" font-family="Arial" font-size="10">Trade</text>
 <ellipse cx="112" cy="148" rx="4" ry="4" stroke="#8C2020" fill="#8C2020"/>
 <polygon points="122,174 127,163 158,163 163,174 158,185 127,185 122,174" stroke="#20208C" fill="#FFFFFF"/>
 <text x="130" y="176" fill="#000000" font-family="Arial" font-size="10">Mob</text>
 <ellipse cx="118" cy="174" rx="4" ry="4" stroke="#8C2020" fill="#8C2020"/>
 <polygon points="119,200 124,189 158,189 163,200 158,211 124,211 119,200" stroke="#20208C" fill="#FFFFFF"/>
 <text x="127" y="202" fill="#000000" font-family="Arial" font-size="10">Zone</text>
 <ellipse cx="115" cy="200" rx="4" ry="4" stroke="#8C2020" fill="#8C2020"/>
 <polygon points="98,226 103,215 158,215 163,226 158,237 103,237 98,226" stroke="#20208C" fill="#FFFFFF"/>
 <text x="106" y="228" fill="#000000" font-family="Arial" font-size="10">Strategy</text>
 <ellipse cx="94" cy="226" rx="4" ry="4" stroke="#8C2020" fill="#8C2020"/>
 <polygon points="80,252 85,241 158,241 163,252 158,263 85,263 80,252" stroke="#20208C" fill="#FFFFFF"/>
 <text x="88" y="254" fill="#000000" font-family="Arial" font-size="10">EvoItemInst</text>
 <ellipse cx="76" cy="252" rx="4" ry="4" stroke="#8C2020" fill="#8C2020"/>
 <polygon points="92,278 97,267 158,267 163,278 158,289 97,289 92,278" stroke="#20208C" fill="#FFFFFF"/>
 <text x="100" y="280" fill="#000000" font-family="Arial" font-size="10">EntityList</text>
 <ellipse cx="88" cy="278" rx="4" ry="4" stroke="#8C2020" fill="#8C2020"/>
 <polygon points="109,304 114,293 158,293 163,304 158,315 114,315 109,304" stroke="#20208C" fill="#FFFFFF"/>
 <text x="117" y="306" fill="#000000" font-family="Arial" font-size="10">Parser</text>
 <ellipse cx="105" cy="304" rx="4" ry="4" stroke="#8C2020" fill="#8C2020"/>
 <polygon points="92,330 97,319 158,319 163,330 158,341 97,341 92,330" stroke="#20208C" fill="#FFFFFF"/>
 <text x="100" y="332" fill="#000000" font-family="Arial" font-size="10">Database</text>
 <ellipse cx="88" cy="330" rx="4" ry="4" stroke="#8C2020" fill="#8C2020"/>
 <polygon points="120,356 125,345 158,345 163,356 158,367 125,367 120,356" stroke="#20208C" fill="#FFFFFF"/>
 <text x="128" y="358" fill="#000000" font-family="Arial" font-size="10">NPC</text>
 <ellipse cx="116" cy="356" rx="4" ry="4" stroke="#8C2020" fill="#8C2020"/>
 <polygon points="106,382 111,371 158,371 163,382 158,393 111,393 106,382" stroke="#20208C" fill="#FFFFFF"/>
 <text x="114" y="384" fill="#000000" font-family="Arial" font-size="10">Corpse</text>
 <ellipse cx="102" cy="382" rx="4" ry="4" stroke="#8C2020" fill="#8C2020"/>
 <polygon points="96,408 101,397 158,397 163,408 158,419 101,419 96,408" stroke="#20208C" fill="#FFFFFF"/>
 <text x="104" y="410" fill="#000000" font-family="Arial" font-size="10">Inventory</text>
 <ellipse cx="92" cy="408" rx="4" ry="4" stroke="#8C2020" fill="#8C2020"/>
 <polygon points="37,434 42,423 158,423 163,434 158,445 42,445 37,434" stroke="#20208C" fill="#FFFFFF"/>
 <text x="45" y="436" fill="#000000" font-family="Arial" font-size="10">GuildBankManager</text>
 <ellipse cx="33" cy="434" rx="4" ry="4" stroke="#8C2020" fill="#8C2020"/>
 <polygon points="70,460 75,449 158,449 163,460 158,471 75,471 70,460" stroke="#20208C" fill="#FFFFFF"/>
 <text x="78" y="462" fill="#000000" font-family="Arial" font-size="10">PerlXSParser</text>
 <ellipse cx="66" cy="460" rx="4" ry="4" stroke="#8C2020" fill="#8C2020"/>
 <polygon points="98,486 103,475 158,475 163,486 158,497 103,497 98,486" stroke="#20208C" fill="#FFFFFF"/>
 <text x="106" y="488" fill="#000000" font-family="Arial" font-size="10">Strategy</text>
 <ellipse cx="94" cy="486" rx="4" ry="4" stroke="#8C2020" fill="#8C2020"/>
 <polygon points="63,512 68,501 158,501 163,512 158,523 68,523 63,512" stroke="#20208C" fill="#FFFFFF"/>
 <text x="71" y="514" fill="#000000" font-family="Arial" font-size="10">QuestInterface</text>
 <ellipse cx="59" cy="512" rx="4" ry="4" stroke="#8C2020" fill="#8C2020"/>
 <polygon points="98,538 103,527 158,527 163,538 158,549 103,549 98,538" stroke="#20208C" fill="#FFFFFF"/>
 <text x="106" y="540" fill="#000000" font-family="Arial" font-size="10">Strategy</text>
 <ellipse cx="94" cy="538" rx="4" ry="4" stroke="#8C2020" fill="#8C2020"/>
 <polygon points="62,564 67,553 158,553 163,564 158,575 67,575 62,564" stroke="#20208C" fill="#FFFFFF"/>
 <text x="70" y="566" fill="#000000" font-family="Arial" font-size="10">QuestManager</text>
 <ellipse cx="58" cy="564" rx="4" ry="4" stroke="#8C2020" fill="#8C2020"/>
 <polygon points="109,590 114,579 158,579 163,590 158,601 114,601 109,590" stroke="#20208C" fill="#FFFFFF"/>
 <text x="117" y="592" fill="#000000" font-family="Arial" font-size="10">Object</text>
 <ellipse cx="105" cy="590" rx="4" ry="4" stroke="#8C2020" fill="#8C2020"/>
 <polygon points="74,616 79,605 158,605 163,616 158,627 79,627 74,616" stroke="#20208C" fill="#FFFFFF"/>
 <text x="82" y="618" fill="#000000" font-family="Arial" font-size="10">EventRecord</text>
 <ellipse cx="70" cy="616" rx="4" ry="4" stroke="#8C2020" fill="#8C2020"/>
 <polygon points="114,642 119,631 158,631 163,642 158,653 119,653 114,642" stroke="#20208C" fill="#FFFFFF"/>
 <text x="122" y="644" fill="#000000" font-family="Arial" font-size="10">Client</text>
 <ellipse cx="110" cy="642" rx="4" ry="4" stroke="#8C2020" fill="#8C2020"/>
 <polygon points="113,668 118,657 158,657 163,668 158,679 118,679 113,668" stroke="#20208C" fill="#FFFFFF"/>
 <text x="121" y="670" fill="#000000" font-family="Arial" font-size="10">Doors</text>
 <ellipse cx="109" cy="668" rx="4" ry="4" stroke="#8C2020" fill="#8C2020"/>
 <polygon points="63,694 68,683 158,683 163,694 158,705 68,705 63,694" stroke="#20208C" fill="#FFFFFF"/>
 <text x="71" y="696" fill="#000000" font-family="Arial" font-size="10">ItemInstQueue</text>
 <ellipse cx="59" cy="694" rx="4" ry="4" stroke="#8C2020" fill="#8C2020"/>
 <polygon points="98,720 103,709 158,709 163,720 158,731 103,731 98,720" stroke="#20208C" fill="#FFFFFF"/>
 <text x="106" y="722" fill="#000000" font-family="Arial" font-size="10">Strategy</text>
 <ellipse cx="94" cy="720" rx="4" ry="4" stroke="#8C2020" fill="#8C2020"/>
 <polygon points="17,746 22,735 158,735 163,746 158,757 22,757 17,746" stroke="#20208C" fill="#FFFFFF"/>
 <text x="25" y="748" fill="#000000" font-family="Arial" font-size="10">QuestParserCollection</text>
 <ellipse cx="13" cy="746" rx="4" ry="4" stroke="#8C2020" fill="#8C2020"/>
 <polygon points="61,772 66,761 158,761 163,772 158,783 66,783 61,772" stroke="#20208C" fill="#FFFFFF"/>
 <text x="69" y="774" fill="#000000" font-family="Arial" font-size="10">PerlembParser</text>
 <ellipse cx="57" cy="772" rx="4" ry="4" stroke="#8C2020" fill="#8C2020"/>
 <polygon points="98,798 103,787 158,787 163,798 158,809 103,809 98,798" stroke="#20208C" fill="#FFFFFF"/>
 <text x="106" y="800" fill="#000000" font-family="Arial" font-size="10">Strategy</text>
 <ellipse cx="94" cy="798" rx="4" ry="4" stroke="#8C2020" fill="#8C2020"/>
 <polygon points="116,813 163,813 158,835 111,835 116,813" stroke="#20208C" fill="#FFFFFF"/>
 <text x="119" y="826" fill="#000000" font-family="Arial" font-size="10">Item.h</text>
 <ellipse cx="107" cy="824" rx="4" ry="4" stroke="#8C2020" fill="#8C2020"/>
</svg>
