<?xml version="1.0"?>
<svg width="333" height="374" xmlns="http://www.w3.org/2000/svg" version="1.1">
 <polyline points="69,187 95,187 105,18 113,18" stroke="#8C2020" fill="none"/>
 <polyline points="69,187 95,187 105,44 113,44" stroke="#8C2020" fill="none"/>
 <polyline points="69,187 95,187 105,70 113,70" stroke="#8C2020" fill="none"/>
 <polyline points="69,187 95,187 105,96 113,96" stroke="#8C2020" fill="none"/>
 <polyline points="69,187 95,187 105,122 113,122" stroke="#8C2020" fill="none"/>
 <polyline points="69,187 95,187 105,148 113,148" stroke="#8C2020" fill="none"/>
 <polyline points="69,187 95,187 105,174 113,174" stroke="#8C2020" fill="none"/>
 <polyline points="69,187 95,187 105,200 113,200" stroke="#8C2020" fill="none"/>
 <polyline points="69,187 95,187 105,226 113,226" stroke="#8C2020" fill="none"/>
 <polyline points="69,187 95,187 105,252 113,252" stroke="#8C2020" fill="none"/>
 <polyline points="69,187 95,187 105,278 113,278" stroke="#8C2020" fill="none"/>
 <polyline points="69,187 95,187 105,304 113,304" stroke="#8C2020" fill="none"/>
 <polyline points="69,187 95,187 105,330 113,330" stroke="#8C2020" fill="none"/>
 <polyline points="69,187 95,187 105,356 113,356" stroke="#8C2020" fill="none"/>
 <polygon points="7,187 12,176 64,176 69,187 64,198 12,198 7,187" stroke="#20208C" fill="#FFFFFF"/>
 <text x="15" y="189" fill="#8C2020" font-family="Arial" font-size="10">ItemInst</text>
 <ellipse cx="73" cy="187" rx="4" ry="4" stroke="#8C2020" fill="#8C2020"/>
 <polygon points="118,7 165,7 160,29 113,29 118,7" stroke="#20208C" fill="#FFFFFF"/>
 <text x="121" y="20" fill="#000000" font-family="Arial" font-size="10">Item.h</text>
 <ellipse cx="169" cy="18" rx="4" ry="4" stroke="#8C2020" fill="#8C2020"/>
 <polygon points="113,44 118,33 155,33 160,44 155,55 118,55 113,44" stroke="#20208C" fill="#FFFFFF"/>
 <text x="121" y="46" fill="#000000" font-family="Arial" font-size="10">_Tree</text>
 <ellipse cx="164" cy="44" rx="4" ry="4" stroke="#8C2020" fill="#8C2020"/>
 <polygon points="113,70 118,59 234,59 239,70 234,81 118,81 113,70" stroke="#20208C" fill="#FFFFFF"/>
 <text x="121" y="72" fill="#000000" font-family="Arial" font-size="10">basic_stringstream</text>
 <ellipse cx="243" cy="70" rx="4" ry="4" stroke="#8C2020" fill="#8C2020"/>
 <polygon points="113,96 118,85 241,85 246,96 241,107 118,107 113,96" stroke="#20208C" fill="#FFFFFF"/>
 <text x="121" y="98" fill="#000000" font-family="Arial" font-size="10">_Tree_const_iterator</text>
 <ellipse cx="250" cy="96" rx="4" ry="4" stroke="#8C2020" fill="#8C2020"/>
 <polygon points="113,122 118,111 191,111 196,122 191,133 118,133 113,122" stroke="#20208C" fill="#FFFFFF"/>
 <text x="121" y="124" fill="#000000" font-family="Arial" font-size="10">Item_Struct</text>
 <ellipse cx="200" cy="122" rx="4" ry="4" stroke="#8C2020" fill="#8C2020"/>
 <polygon points="113,148 118,137 175,137 180,148 175,159 118,159 113,148" stroke="#20208C" fill="#FFFFFF"/>
 <text x="121" y="150" fill="#000000" font-family="Arial" font-size="10">Inventory</text>
 <ellipse cx="184" cy="148" rx="4" ry="4" stroke="#8C2020" fill="#8C2020"/>
 <polygon points="113,174 118,163 224,163 229,174 224,185 118,185 113,174" stroke="#20208C" fill="#FFFFFF"/>
 <text x="121" y="176" fill="#000000" font-family="Arial" font-size="10">ItemEffect_Struct</text>
 <ellipse cx="233" cy="174" rx="4" ry="4" stroke="#8C2020" fill="#8C2020"/>
 <polygon points="113,200 118,189 220,189 225,200 220,211 118,211 113,200" stroke="#20208C" fill="#FFFFFF"/>
 <text x="121" y="202" fill="#000000" font-family="Arial" font-size="10">SharedDatabase</text>
 <ellipse cx="229" cy="200" rx="4" ry="4" stroke="#8C2020" fill="#8C2020"/>
 <polygon points="113,226 118,215 194,215 199,226 194,237 118,237 113,226" stroke="#20208C" fill="#FFFFFF"/>
 <text x="121" y="228" fill="#000000" font-family="Arial" font-size="10">basic_string</text>
 <ellipse cx="203" cy="226" rx="4" ry="4" stroke="#8C2020" fill="#8C2020"/>
 <polygon points="113,252 118,241 311,241 316,252 311,263 118,263 113,252" stroke="#20208C" fill="#FFFFFF"/>
 <text x="121" y="254" fill="#000000" font-family="Arial" font-size="10">_Tree_unchecked_const_iterator</text>
 <ellipse cx="320" cy="252" rx="4" ry="4" stroke="#8C2020" fill="#8C2020"/>
 <polygon points="113,278 118,267 189,267 194,278 189,289 118,289 113,278" stroke="#20208C" fill="#FFFFFF"/>
 <text x="121" y="280" fill="#000000" font-family="Arial" font-size="10">_Pair_base</text>
 <ellipse cx="198" cy="278" rx="4" ry="4" stroke="#8C2020" fill="#8C2020"/>
 <polygon points="113,304 118,293 290,293 295,304 290,315 118,315 113,304" stroke="#20208C" fill="#FFFFFF"/>
 <text x="121" y="306" fill="#000000" font-family="Arial" font-size="10">InternalSerializedItem_Struct</text>
 <ellipse cx="299" cy="304" rx="4" ry="4" stroke="#8C2020" fill="#8C2020"/>
 <polygon points="113,330 118,319 209,319 214,330 209,341 118,341 113,330" stroke="#20208C" fill="#FFFFFF"/>
 <text x="121" y="332" fill="#000000" font-family="Arial" font-size="10">basic_ostream</text>
 <ellipse cx="218" cy="330" rx="4" ry="4" stroke="#8C2020" fill="#8C2020"/>
 <polygon points="113,356 118,345 149,345 154,356 149,367 118,367 113,356" stroke="#20208C" fill="#FFFFFF"/>
 <text x="121" y="358" fill="#000000" font-family="Arial" font-size="10">map</text>
 <ellipse cx="158" cy="356" rx="4" ry="4" stroke="#8C2020" fill="#8C2020"/>
</svg>
